<svg width="360" height="311" viewBox="0 0 360 311" fill="none" xmlns="http://www.w3.org/2000/svg">
<mask id="mask0_57_797" style="mask-type:alpha" maskUnits="userSpaceOnUse" x="0" y="-49" width="360" height="360">
<rect width="360" height="360" transform="matrix(1 0 0 -1 0 311)" fill="url(#paint0_radial_57_797)"/>
</mask>
<g mask="url(#mask0_57_797)">
<g clip-path="url(#clip0_57_797)">
<mask id="path-3-inside-1_57_797" fill="white">
<path d="M0 311H24V287H0V311Z"/>
</mask>
<path d="M24 287V286.625H24.375V287H24ZM23.625 311V287H24.375V311H23.625ZM24 287.375H0V286.625H24V287.375Z" fill="#D0D5DD" mask="url(#path-3-inside-1_57_797)"/>
<mask id="path-5-inside-2_57_797" fill="white">
<path d="M24 311H48V287H24V311Z"/>
</mask>
<path d="M48 287V286.625H48.375V287H48ZM47.625 311V287H48.375V311H47.625ZM48 287.375H24V286.625H48V287.375Z" fill="#D0D5DD" mask="url(#path-5-inside-2_57_797)"/>
<mask id="path-7-inside-3_57_797" fill="white">
<path d="M48 311H72V287H48V311Z"/>
</mask>
<path d="M72 287V286.625H72.375V287H72ZM71.625 311V287H72.375V311H71.625ZM72 287.375H48V286.625H72V287.375Z" fill="#D0D5DD" mask="url(#path-7-inside-3_57_797)"/>
<mask id="path-9-inside-4_57_797" fill="white">
<path d="M72 311H96V287H72V311Z"/>
</mask>
<path d="M96 287V286.625H96.375V287H96ZM95.625 311V287H96.375V311H95.625ZM96 287.375H72V286.625H96V287.375Z" fill="#D0D5DD" mask="url(#path-9-inside-4_57_797)"/>
<mask id="path-11-inside-5_57_797" fill="white">
<path d="M96 311H120V287H96V311Z"/>
</mask>
<path d="M120 287V286.625H120.375V287H120ZM119.625 311V287H120.375V311H119.625ZM120 287.375H96V286.625H120V287.375Z" fill="#D0D5DD" mask="url(#path-11-inside-5_57_797)"/>
<mask id="path-13-inside-6_57_797" fill="white">
<path d="M120 311H144V287H120V311Z"/>
</mask>
<path d="M144 287V286.625H144.375V287H144ZM143.625 311V287H144.375V311H143.625ZM144 287.375H120V286.625H144V287.375Z" fill="#D0D5DD" mask="url(#path-13-inside-6_57_797)"/>
<mask id="path-15-inside-7_57_797" fill="white">
<path d="M144 311H168V287H144V311Z"/>
</mask>
<path d="M168 287V286.625H168.375V287H168ZM167.625 311V287H168.375V311H167.625ZM168 287.375H144V286.625H168V287.375Z" fill="#D0D5DD" mask="url(#path-15-inside-7_57_797)"/>
<mask id="path-17-inside-8_57_797" fill="white">
<path d="M168 311H192V287H168V311Z"/>
</mask>
<path d="M192 287V286.625H192.375V287H192ZM191.625 311V287H192.375V311H191.625ZM192 287.375H168V286.625H192V287.375Z" fill="#D0D5DD" mask="url(#path-17-inside-8_57_797)"/>
<mask id="path-19-inside-9_57_797" fill="white">
<path d="M192 311H216V287H192V311Z"/>
</mask>
<path d="M216 287V286.625H216.375V287H216ZM215.625 311V287H216.375V311H215.625ZM216 287.375H192V286.625H216V287.375Z" fill="#D0D5DD" mask="url(#path-19-inside-9_57_797)"/>
<mask id="path-21-inside-10_57_797" fill="white">
<path d="M216 311H240V287H216V311Z"/>
</mask>
<path d="M240 287V286.625H240.375V287H240ZM239.625 311V287H240.375V311H239.625ZM240 287.375H216V286.625H240V287.375Z" fill="#D0D5DD" mask="url(#path-21-inside-10_57_797)"/>
<mask id="path-23-inside-11_57_797" fill="white">
<path d="M240 311H264V287H240V311Z"/>
</mask>
<path d="M264 287V286.625H264.375V287H264ZM263.625 311V287H264.375V311H263.625ZM264 287.375H240V286.625H264V287.375Z" fill="#D0D5DD" mask="url(#path-23-inside-11_57_797)"/>
<mask id="path-25-inside-12_57_797" fill="white">
<path d="M264 311H288V287H264V311Z"/>
</mask>
<path d="M288 287V286.625H288.375V287H288ZM287.625 311V287H288.375V311H287.625ZM288 287.375H264V286.625H288V287.375Z" fill="#D0D5DD" mask="url(#path-25-inside-12_57_797)"/>
<mask id="path-27-inside-13_57_797" fill="white">
<path d="M288 311H312V287H288V311Z"/>
</mask>
<path d="M312 287V286.625H312.375V287H312ZM311.625 311V287H312.375V311H311.625ZM312 287.375H288V286.625H312V287.375Z" fill="#D0D5DD" mask="url(#path-27-inside-13_57_797)"/>
<mask id="path-29-inside-14_57_797" fill="white">
<path d="M312 311H336V287H312V311Z"/>
</mask>
<path d="M336 287V286.625H336.375V287H336ZM335.625 311V287H336.375V311H335.625ZM336 287.375H312V286.625H336V287.375Z" fill="#D0D5DD" mask="url(#path-29-inside-14_57_797)"/>
<mask id="path-31-inside-15_57_797" fill="white">
<path d="M336 311H360V287H336V311Z"/>
</mask>
<path d="M360 287V286.625H360.375V287H360ZM359.625 311V287H360.375V311H359.625ZM360 287.375H336V286.625H360V287.375Z" fill="#D0D5DD" mask="url(#path-31-inside-15_57_797)"/>
<mask id="path-33-inside-16_57_797" fill="white">
<path d="M0 287H24V263H0V287Z"/>
</mask>
<path d="M24 263V262.625H24.375V263H24ZM23.625 287V263H24.375V287H23.625ZM24 263.375H0V262.625H24V263.375Z" fill="#D0D5DD" mask="url(#path-33-inside-16_57_797)"/>
<mask id="path-35-inside-17_57_797" fill="white">
<path d="M24 287H48V263H24V287Z"/>
</mask>
<path d="M48 263V262.625H48.375V263H48ZM47.625 287V263H48.375V287H47.625ZM48 263.375H24V262.625H48V263.375Z" fill="#D0D5DD" mask="url(#path-35-inside-17_57_797)"/>
<mask id="path-37-inside-18_57_797" fill="white">
<path d="M48 287H72V263H48V287Z"/>
</mask>
<path d="M48 287H72V263H48V287Z" fill="#F2F4F7"/>
<path d="M72 263V262.625H72.375V263H72ZM71.625 287V263H72.375V287H71.625ZM72 263.375H48V262.625H72V263.375Z" fill="#D0D5DD" mask="url(#path-37-inside-18_57_797)"/>
<mask id="path-39-inside-19_57_797" fill="white">
<path d="M72 287H96V263H72V287Z"/>
</mask>
<path d="M96 263V262.625H96.375V263H96ZM95.625 287V263H96.375V287H95.625ZM96 263.375H72V262.625H96V263.375Z" fill="#D0D5DD" mask="url(#path-39-inside-19_57_797)"/>
<mask id="path-41-inside-20_57_797" fill="white">
<path d="M96 287H120V263H96V287Z"/>
</mask>
<path d="M120 263V262.625H120.375V263H120ZM119.625 287V263H120.375V287H119.625ZM120 263.375H96V262.625H120V263.375Z" fill="#D0D5DD" mask="url(#path-41-inside-20_57_797)"/>
<mask id="path-43-inside-21_57_797" fill="white">
<path d="M120 287H144V263H120V287Z"/>
</mask>
<path d="M144 263V262.625H144.375V263H144ZM143.625 287V263H144.375V287H143.625ZM144 263.375H120V262.625H144V263.375Z" fill="#D0D5DD" mask="url(#path-43-inside-21_57_797)"/>
<mask id="path-45-inside-22_57_797" fill="white">
<path d="M144 287H168V263H144V287Z"/>
</mask>
<path d="M168 263V262.625H168.375V263H168ZM167.625 287V263H168.375V287H167.625ZM168 263.375H144V262.625H168V263.375Z" fill="#D0D5DD" mask="url(#path-45-inside-22_57_797)"/>
<mask id="path-47-inside-23_57_797" fill="white">
<path d="M168 287H192V263H168V287Z"/>
</mask>
<path d="M192 263V262.625H192.375V263H192ZM191.625 287V263H192.375V287H191.625ZM192 263.375H168V262.625H192V263.375Z" fill="#D0D5DD" mask="url(#path-47-inside-23_57_797)"/>
<mask id="path-49-inside-24_57_797" fill="white">
<path d="M192 287H216V263H192V287Z"/>
</mask>
<path d="M216 263V262.625H216.375V263H216ZM215.625 287V263H216.375V287H215.625ZM216 263.375H192V262.625H216V263.375Z" fill="#D0D5DD" mask="url(#path-49-inside-24_57_797)"/>
<mask id="path-51-inside-25_57_797" fill="white">
<path d="M216 287H240V263H216V287Z"/>
</mask>
<path d="M240 263V262.625H240.375V263H240ZM239.625 287V263H240.375V287H239.625ZM240 263.375H216V262.625H240V263.375Z" fill="#D0D5DD" mask="url(#path-51-inside-25_57_797)"/>
<mask id="path-53-inside-26_57_797" fill="white">
<path d="M240 287H264V263H240V287Z"/>
</mask>
<path d="M264 263V262.625H264.375V263H264ZM263.625 287V263H264.375V287H263.625ZM264 263.375H240V262.625H264V263.375Z" fill="#D0D5DD" mask="url(#path-53-inside-26_57_797)"/>
<mask id="path-55-inside-27_57_797" fill="white">
<path d="M264 287H288V263H264V287Z"/>
</mask>
<path d="M264 287H288V263H264V287Z" fill="#F2F4F7"/>
<path d="M288 263V262.625H288.375V263H288ZM287.625 287V263H288.375V287H287.625ZM288 263.375H264V262.625H288V263.375Z" fill="#D0D5DD" mask="url(#path-55-inside-27_57_797)"/>
<mask id="path-57-inside-28_57_797" fill="white">
<path d="M288 287H312V263H288V287Z"/>
</mask>
<path d="M312 263V262.625H312.375V263H312ZM311.625 287V263H312.375V287H311.625ZM312 263.375H288V262.625H312V263.375Z" fill="#D0D5DD" mask="url(#path-57-inside-28_57_797)"/>
<mask id="path-59-inside-29_57_797" fill="white">
<path d="M312 287H336V263H312V287Z"/>
</mask>
<path d="M336 263V262.625H336.375V263H336ZM335.625 287V263H336.375V287H335.625ZM336 263.375H312V262.625H336V263.375Z" fill="#D0D5DD" mask="url(#path-59-inside-29_57_797)"/>
<mask id="path-61-inside-30_57_797" fill="white">
<path d="M336 287H360V263H336V287Z"/>
</mask>
<path d="M360 263V262.625H360.375V263H360ZM359.625 287V263H360.375V287H359.625ZM360 263.375H336V262.625H360V263.375Z" fill="#D0D5DD" mask="url(#path-61-inside-30_57_797)"/>
<mask id="path-63-inside-31_57_797" fill="white">
<path d="M0 263H24V239H0V263Z"/>
</mask>
<path d="M24 239V238.625H24.375V239H24ZM23.625 263V239H24.375V263H23.625ZM24 239.375H0V238.625H24V239.375Z" fill="#D0D5DD" mask="url(#path-63-inside-31_57_797)"/>
<mask id="path-65-inside-32_57_797" fill="white">
<path d="M24 263H48V239H24V263Z"/>
</mask>
<path d="M48 239V238.625H48.375V239H48ZM47.625 263V239H48.375V263H47.625ZM48 239.375H24V238.625H48V239.375Z" fill="#D0D5DD" mask="url(#path-65-inside-32_57_797)"/>
<mask id="path-67-inside-33_57_797" fill="white">
<path d="M48 263H72V239H48V263Z"/>
</mask>
<path d="M72 239V238.625H72.375V239H72ZM71.625 263V239H72.375V263H71.625ZM72 239.375H48V238.625H72V239.375Z" fill="#D0D5DD" mask="url(#path-67-inside-33_57_797)"/>
<mask id="path-69-inside-34_57_797" fill="white">
<path d="M72 263H96V239H72V263Z"/>
</mask>
<path d="M96 239V238.625H96.375V239H96ZM95.625 263V239H96.375V263H95.625ZM96 239.375H72V238.625H96V239.375Z" fill="#D0D5DD" mask="url(#path-69-inside-34_57_797)"/>
<mask id="path-71-inside-35_57_797" fill="white">
<path d="M96 263H120V239H96V263Z"/>
</mask>
<path d="M96 263H120V239H96V263Z" fill="#F2F4F7"/>
<path d="M120 239V238.625H120.375V239H120ZM119.625 263V239H120.375V263H119.625ZM120 239.375H96V238.625H120V239.375Z" fill="#D0D5DD" mask="url(#path-71-inside-35_57_797)"/>
<mask id="path-73-inside-36_57_797" fill="white">
<path d="M120 263H144V239H120V263Z"/>
</mask>
<path d="M144 239V238.625H144.375V239H144ZM143.625 263V239H144.375V263H143.625ZM144 239.375H120V238.625H144V239.375Z" fill="#D0D5DD" mask="url(#path-73-inside-36_57_797)"/>
<mask id="path-75-inside-37_57_797" fill="white">
<path d="M144 263H168V239H144V263Z"/>
</mask>
<path d="M168 239V238.625H168.375V239H168ZM167.625 263V239H168.375V263H167.625ZM168 239.375H144V238.625H168V239.375Z" fill="#D0D5DD" mask="url(#path-75-inside-37_57_797)"/>
<mask id="path-77-inside-38_57_797" fill="white">
<path d="M168 263H192V239H168V263Z"/>
</mask>
<path d="M192 239V238.625H192.375V239H192ZM191.625 263V239H192.375V263H191.625ZM192 239.375H168V238.625H192V239.375Z" fill="#D0D5DD" mask="url(#path-77-inside-38_57_797)"/>
<mask id="path-79-inside-39_57_797" fill="white">
<path d="M192 263H216V239H192V263Z"/>
</mask>
<path d="M192 263H216V239H192V263Z" fill="#F2F4F7"/>
<path d="M216 239V238.625H216.375V239H216ZM215.625 263V239H216.375V263H215.625ZM216 239.375H192V238.625H216V239.375Z" fill="#D0D5DD" mask="url(#path-79-inside-39_57_797)"/>
<mask id="path-81-inside-40_57_797" fill="white">
<path d="M216 263H240V239H216V263Z"/>
</mask>
<path d="M240 239V238.625H240.375V239H240ZM239.625 263V239H240.375V263H239.625ZM240 239.375H216V238.625H240V239.375Z" fill="#D0D5DD" mask="url(#path-81-inside-40_57_797)"/>
<mask id="path-83-inside-41_57_797" fill="white">
<path d="M240 263H264V239H240V263Z"/>
</mask>
<path d="M264 239V238.625H264.375V239H264ZM263.625 263V239H264.375V263H263.625ZM264 239.375H240V238.625H264V239.375Z" fill="#D0D5DD" mask="url(#path-83-inside-41_57_797)"/>
<mask id="path-85-inside-42_57_797" fill="white">
<path d="M264 263H288V239H264V263Z"/>
</mask>
<path d="M288 239V238.625H288.375V239H288ZM287.625 263V239H288.375V263H287.625ZM288 239.375H264V238.625H288V239.375Z" fill="#D0D5DD" mask="url(#path-85-inside-42_57_797)"/>
<mask id="path-87-inside-43_57_797" fill="white">
<path d="M288 263H312V239H288V263Z"/>
</mask>
<path d="M312 239V238.625H312.375V239H312ZM311.625 263V239H312.375V263H311.625ZM312 239.375H288V238.625H312V239.375Z" fill="#D0D5DD" mask="url(#path-87-inside-43_57_797)"/>
<mask id="path-89-inside-44_57_797" fill="white">
<path d="M312 263H336V239H312V263Z"/>
</mask>
<path d="M336 239V238.625H336.375V239H336ZM335.625 263V239H336.375V263H335.625ZM336 239.375H312V238.625H336V239.375Z" fill="#D0D5DD" mask="url(#path-89-inside-44_57_797)"/>
<mask id="path-91-inside-45_57_797" fill="white">
<path d="M336 263H360V239H336V263Z"/>
</mask>
<path d="M360 239V238.625H360.375V239H360ZM359.625 263V239H360.375V263H359.625ZM360 239.375H336V238.625H360V239.375Z" fill="#D0D5DD" mask="url(#path-91-inside-45_57_797)"/>
<mask id="path-93-inside-46_57_797" fill="white">
<path d="M0 239H24V215H0V239Z"/>
</mask>
<path d="M24 215V214.625H24.375V215H24ZM23.625 239V215H24.375V239H23.625ZM24 215.375H0V214.625H24V215.375Z" fill="#D0D5DD" mask="url(#path-93-inside-46_57_797)"/>
<mask id="path-95-inside-47_57_797" fill="white">
<path d="M24 239H48V215H24V239Z"/>
</mask>
<path d="M48 215V214.625H48.375V215H48ZM47.625 239V215H48.375V239H47.625ZM48 215.375H24V214.625H48V215.375Z" fill="#D0D5DD" mask="url(#path-95-inside-47_57_797)"/>
<mask id="path-97-inside-48_57_797" fill="white">
<path d="M48 239H72V215H48V239Z"/>
</mask>
<path d="M72 215V214.625H72.375V215H72ZM71.625 239V215H72.375V239H71.625ZM72 215.375H48V214.625H72V215.375Z" fill="#D0D5DD" mask="url(#path-97-inside-48_57_797)"/>
<mask id="path-99-inside-49_57_797" fill="white">
<path d="M72 239H96V215H72V239Z"/>
</mask>
<path d="M96 215V214.625H96.375V215H96ZM95.625 239V215H96.375V239H95.625ZM96 215.375H72V214.625H96V215.375Z" fill="#D0D5DD" mask="url(#path-99-inside-49_57_797)"/>
<mask id="path-101-inside-50_57_797" fill="white">
<path d="M96 239H120V215H96V239Z"/>
</mask>
<path d="M120 215V214.625H120.375V215H120ZM119.625 239V215H120.375V239H119.625ZM120 215.375H96V214.625H120V215.375Z" fill="#D0D5DD" mask="url(#path-101-inside-50_57_797)"/>
<mask id="path-103-inside-51_57_797" fill="white">
<path d="M120 239H144V215H120V239Z"/>
</mask>
<path d="M144 215V214.625H144.375V215H144ZM143.625 239V215H144.375V239H143.625ZM144 215.375H120V214.625H144V215.375Z" fill="#D0D5DD" mask="url(#path-103-inside-51_57_797)"/>
<mask id="path-105-inside-52_57_797" fill="white">
<path d="M144 239H168V215H144V239Z"/>
</mask>
<path d="M168 215V214.625H168.375V215H168ZM167.625 239V215H168.375V239H167.625ZM168 215.375H144V214.625H168V215.375Z" fill="#D0D5DD" mask="url(#path-105-inside-52_57_797)"/>
<mask id="path-107-inside-53_57_797" fill="white">
<path d="M168 239H192V215H168V239Z"/>
</mask>
<path d="M192 215V214.625H192.375V215H192ZM191.625 239V215H192.375V239H191.625ZM192 215.375H168V214.625H192V215.375Z" fill="#D0D5DD" mask="url(#path-107-inside-53_57_797)"/>
<mask id="path-109-inside-54_57_797" fill="white">
<path d="M192 239H216V215H192V239Z"/>
</mask>
<path d="M216 215V214.625H216.375V215H216ZM215.625 239V215H216.375V239H215.625ZM216 215.375H192V214.625H216V215.375Z" fill="#D0D5DD" mask="url(#path-109-inside-54_57_797)"/>
<mask id="path-111-inside-55_57_797" fill="white">
<path d="M216 239H240V215H216V239Z"/>
</mask>
<path d="M240 215V214.625H240.375V215H240ZM239.625 239V215H240.375V239H239.625ZM240 215.375H216V214.625H240V215.375Z" fill="#D0D5DD" mask="url(#path-111-inside-55_57_797)"/>
<mask id="path-113-inside-56_57_797" fill="white">
<path d="M240 239H264V215H240V239Z"/>
</mask>
<path d="M264 215V214.625H264.375V215H264ZM263.625 239V215H264.375V239H263.625ZM264 215.375H240V214.625H264V215.375Z" fill="#D0D5DD" mask="url(#path-113-inside-56_57_797)"/>
<mask id="path-115-inside-57_57_797" fill="white">
<path d="M264 239H288V215H264V239Z"/>
</mask>
<path d="M288 215V214.625H288.375V215H288ZM287.625 239V215H288.375V239H287.625ZM288 215.375H264V214.625H288V215.375Z" fill="#D0D5DD" mask="url(#path-115-inside-57_57_797)"/>
<mask id="path-117-inside-58_57_797" fill="white">
<path d="M288 239H312V215H288V239Z"/>
</mask>
<path d="M288 239H312V215H288V239Z" fill="#F2F4F7"/>
<path d="M312 215V214.625H312.375V215H312ZM311.625 239V215H312.375V239H311.625ZM312 215.375H288V214.625H312V215.375Z" fill="#D0D5DD" mask="url(#path-117-inside-58_57_797)"/>
<mask id="path-119-inside-59_57_797" fill="white">
<path d="M312 239H336V215H312V239Z"/>
</mask>
<path d="M336 215V214.625H336.375V215H336ZM335.625 239V215H336.375V239H335.625ZM336 215.375H312V214.625H336V215.375Z" fill="#D0D5DD" mask="url(#path-119-inside-59_57_797)"/>
<mask id="path-121-inside-60_57_797" fill="white">
<path d="M336 239H360V215H336V239Z"/>
</mask>
<path d="M360 215V214.625H360.375V215H360ZM359.625 239V215H360.375V239H359.625ZM360 215.375H336V214.625H360V215.375Z" fill="#D0D5DD" mask="url(#path-121-inside-60_57_797)"/>
<mask id="path-123-inside-61_57_797" fill="white">
<path d="M0 215H24V191H0V215Z"/>
</mask>
<path d="M0 215H24V191H0V215Z" fill="#F2F4F7"/>
<path d="M24 191V190.625H24.375V191H24ZM23.625 215V191H24.375V215H23.625ZM24 191.375H0V190.625H24V191.375Z" fill="#D0D5DD" mask="url(#path-123-inside-61_57_797)"/>
<mask id="path-125-inside-62_57_797" fill="white">
<path d="M24 215H48V191H24V215Z"/>
</mask>
<path d="M48 191V190.625H48.375V191H48ZM47.625 215V191H48.375V215H47.625ZM48 191.375H24V190.625H48V191.375Z" fill="#D0D5DD" mask="url(#path-125-inside-62_57_797)"/>
<mask id="path-127-inside-63_57_797" fill="white">
<path d="M48 215H72V191H48V215Z"/>
</mask>
<path d="M72 191V190.625H72.375V191H72ZM71.625 215V191H72.375V215H71.625ZM72 191.375H48V190.625H72V191.375Z" fill="#D0D5DD" mask="url(#path-127-inside-63_57_797)"/>
<mask id="path-129-inside-64_57_797" fill="white">
<path d="M72 215H96V191H72V215Z"/>
</mask>
<path d="M96 191V190.625H96.375V191H96ZM95.625 215V191H96.375V215H95.625ZM96 191.375H72V190.625H96V191.375Z" fill="#D0D5DD" mask="url(#path-129-inside-64_57_797)"/>
<mask id="path-131-inside-65_57_797" fill="white">
<path d="M96 215H120V191H96V215Z"/>
</mask>
<path d="M120 191V190.625H120.375V191H120ZM119.625 215V191H120.375V215H119.625ZM120 191.375H96V190.625H120V191.375Z" fill="#D0D5DD" mask="url(#path-131-inside-65_57_797)"/>
<mask id="path-133-inside-66_57_797" fill="white">
<path d="M120 215H144V191H120V215Z"/>
</mask>
<path d="M120 215H144V191H120V215Z" fill="#F2F4F7"/>
<path d="M144 191V190.625H144.375V191H144ZM143.625 215V191H144.375V215H143.625ZM144 191.375H120V190.625H144V191.375Z" fill="#D0D5DD" mask="url(#path-133-inside-66_57_797)"/>
<mask id="path-135-inside-67_57_797" fill="white">
<path d="M144 215H168V191H144V215Z"/>
</mask>
<path d="M168 191V190.625H168.375V191H168ZM167.625 215V191H168.375V215H167.625ZM168 191.375H144V190.625H168V191.375Z" fill="#D0D5DD" mask="url(#path-135-inside-67_57_797)"/>
<mask id="path-137-inside-68_57_797" fill="white">
<path d="M168 215H192V191H168V215Z"/>
</mask>
<path d="M192 191V190.625H192.375V191H192ZM191.625 215V191H192.375V215H191.625ZM192 191.375H168V190.625H192V191.375Z" fill="#D0D5DD" mask="url(#path-137-inside-68_57_797)"/>
<mask id="path-139-inside-69_57_797" fill="white">
<path d="M192 215H216V191H192V215Z"/>
</mask>
<path d="M216 191V190.625H216.375V191H216ZM215.625 215V191H216.375V215H215.625ZM216 191.375H192V190.625H216V191.375Z" fill="#D0D5DD" mask="url(#path-139-inside-69_57_797)"/>
<mask id="path-141-inside-70_57_797" fill="white">
<path d="M216 215H240V191H216V215Z"/>
</mask>
<path d="M240 191V190.625H240.375V191H240ZM239.625 215V191H240.375V215H239.625ZM240 191.375H216V190.625H240V191.375Z" fill="#D0D5DD" mask="url(#path-141-inside-70_57_797)"/>
<mask id="path-143-inside-71_57_797" fill="white">
<path d="M240 215H264V191H240V215Z"/>
</mask>
<path d="M264 191V190.625H264.375V191H264ZM263.625 215V191H264.375V215H263.625ZM264 191.375H240V190.625H264V191.375Z" fill="#D0D5DD" mask="url(#path-143-inside-71_57_797)"/>
<mask id="path-145-inside-72_57_797" fill="white">
<path d="M264 215H288V191H264V215Z"/>
</mask>
<path d="M288 191V190.625H288.375V191H288ZM287.625 215V191H288.375V215H287.625ZM288 191.375H264V190.625H288V191.375Z" fill="#D0D5DD" mask="url(#path-145-inside-72_57_797)"/>
<mask id="path-147-inside-73_57_797" fill="white">
<path d="M288 215H312V191H288V215Z"/>
</mask>
<path d="M312 191V190.625H312.375V191H312ZM311.625 215V191H312.375V215H311.625ZM312 191.375H288V190.625H312V191.375Z" fill="#D0D5DD" mask="url(#path-147-inside-73_57_797)"/>
<mask id="path-149-inside-74_57_797" fill="white">
<path d="M312 215H336V191H312V215Z"/>
</mask>
<path d="M336 191V190.625H336.375V191H336ZM335.625 215V191H336.375V215H335.625ZM336 191.375H312V190.625H336V191.375Z" fill="#D0D5DD" mask="url(#path-149-inside-74_57_797)"/>
<mask id="path-151-inside-75_57_797" fill="white">
<path d="M336 215H360V191H336V215Z"/>
</mask>
<path d="M360 191V190.625H360.375V191H360ZM359.625 215V191H360.375V215H359.625ZM360 191.375H336V190.625H360V191.375Z" fill="#D0D5DD" mask="url(#path-151-inside-75_57_797)"/>
<mask id="path-153-inside-76_57_797" fill="white">
<path d="M0 191H24V167H0V191Z"/>
</mask>
<path d="M24 167V166.625H24.375V167H24ZM23.625 191V167H24.375V191H23.625ZM24 167.375H0V166.625H24V167.375Z" fill="#D0D5DD" mask="url(#path-153-inside-76_57_797)"/>
<mask id="path-155-inside-77_57_797" fill="white">
<path d="M24 191H48V167H24V191Z"/>
</mask>
<path d="M48 167V166.625H48.375V167H48ZM47.625 191V167H48.375V191H47.625ZM48 167.375H24V166.625H48V167.375Z" fill="#D0D5DD" mask="url(#path-155-inside-77_57_797)"/>
<mask id="path-157-inside-78_57_797" fill="white">
<path d="M48 191H72V167H48V191Z"/>
</mask>
<path d="M72 167V166.625H72.375V167H72ZM71.625 191V167H72.375V191H71.625ZM72 167.375H48V166.625H72V167.375Z" fill="#D0D5DD" mask="url(#path-157-inside-78_57_797)"/>
<mask id="path-159-inside-79_57_797" fill="white">
<path d="M72 191H96V167H72V191Z"/>
</mask>
<path d="M72 191H96V167H72V191Z" fill="#F2F4F7"/>
<path d="M96 167V166.625H96.375V167H96ZM95.625 191V167H96.375V191H95.625ZM96 167.375H72V166.625H96V167.375Z" fill="#D0D5DD" mask="url(#path-159-inside-79_57_797)"/>
<mask id="path-161-inside-80_57_797" fill="white">
<path d="M96 191H120V167H96V191Z"/>
</mask>
<path d="M120 167V166.625H120.375V167H120ZM119.625 191V167H120.375V191H119.625ZM120 167.375H96V166.625H120V167.375Z" fill="#D0D5DD" mask="url(#path-161-inside-80_57_797)"/>
<mask id="path-163-inside-81_57_797" fill="white">
<path d="M120 191H144V167H120V191Z"/>
</mask>
<path d="M144 167V166.625H144.375V167H144ZM143.625 191V167H144.375V191H143.625ZM144 167.375H120V166.625H144V167.375Z" fill="#D0D5DD" mask="url(#path-163-inside-81_57_797)"/>
<mask id="path-165-inside-82_57_797" fill="white">
<path d="M144 191H168V167H144V191Z"/>
</mask>
<path d="M168 167V166.625H168.375V167H168ZM167.625 191V167H168.375V191H167.625ZM168 167.375H144V166.625H168V167.375Z" fill="#D0D5DD" mask="url(#path-165-inside-82_57_797)"/>
<mask id="path-167-inside-83_57_797" fill="white">
<path d="M168 191H192V167H168V191Z"/>
</mask>
<path d="M192 167V166.625H192.375V167H192ZM191.625 191V167H192.375V191H191.625ZM192 167.375H168V166.625H192V167.375Z" fill="#D0D5DD" mask="url(#path-167-inside-83_57_797)"/>
<mask id="path-169-inside-84_57_797" fill="white">
<path d="M192 191H216V167H192V191Z"/>
</mask>
<path d="M216 167V166.625H216.375V167H216ZM215.625 191V167H216.375V191H215.625ZM216 167.375H192V166.625H216V167.375Z" fill="#D0D5DD" mask="url(#path-169-inside-84_57_797)"/>
<mask id="path-171-inside-85_57_797" fill="white">
<path d="M216 191H240V167H216V191Z"/>
</mask>
<path d="M216 191H240V167H216V191Z" fill="#F2F4F7"/>
<path d="M240 167V166.625H240.375V167H240ZM239.625 191V167H240.375V191H239.625ZM240 167.375H216V166.625H240V167.375Z" fill="#D0D5DD" mask="url(#path-171-inside-85_57_797)"/>
<mask id="path-173-inside-86_57_797" fill="white">
<path d="M240 191H264V167H240V191Z"/>
</mask>
<path d="M264 167V166.625H264.375V167H264ZM263.625 191V167H264.375V191H263.625ZM264 167.375H240V166.625H264V167.375Z" fill="#D0D5DD" mask="url(#path-173-inside-86_57_797)"/>
<mask id="path-175-inside-87_57_797" fill="white">
<path d="M264 191H288V167H264V191Z"/>
</mask>
<path d="M288 167V166.625H288.375V167H288ZM287.625 191V167H288.375V191H287.625ZM288 167.375H264V166.625H288V167.375Z" fill="#D0D5DD" mask="url(#path-175-inside-87_57_797)"/>
<mask id="path-177-inside-88_57_797" fill="white">
<path d="M288 191H312V167H288V191Z"/>
</mask>
<path d="M288 191H312V167H288V191Z" fill="#F2F4F7"/>
<path d="M312 167V166.625H312.375V167H312ZM311.625 191V167H312.375V191H311.625ZM312 167.375H288V166.625H312V167.375Z" fill="#D0D5DD" mask="url(#path-177-inside-88_57_797)"/>
<mask id="path-179-inside-89_57_797" fill="white">
<path d="M312 191H336V167H312V191Z"/>
</mask>
<path d="M336 167V166.625H336.375V167H336ZM335.625 191V167H336.375V191H335.625ZM336 167.375H312V166.625H336V167.375Z" fill="#D0D5DD" mask="url(#path-179-inside-89_57_797)"/>
<mask id="path-181-inside-90_57_797" fill="white">
<path d="M336 191H360V167H336V191Z"/>
</mask>
<path d="M360 167V166.625H360.375V167H360ZM359.625 191V167H360.375V191H359.625ZM360 167.375H336V166.625H360V167.375Z" fill="#D0D5DD" mask="url(#path-181-inside-90_57_797)"/>
<mask id="path-183-inside-91_57_797" fill="white">
<path d="M0 167H24V143H0V167Z"/>
</mask>
<path d="M24 143V142.625H24.375V143H24ZM23.625 167V143H24.375V167H23.625ZM24 143.375H0V142.625H24V143.375Z" fill="#D0D5DD" mask="url(#path-183-inside-91_57_797)"/>
<mask id="path-185-inside-92_57_797" fill="white">
<path d="M24 167H48V143H24V167Z"/>
</mask>
<path d="M48 143V142.625H48.375V143H48ZM47.625 167V143H48.375V167H47.625ZM48 143.375H24V142.625H48V143.375Z" fill="#D0D5DD" mask="url(#path-185-inside-92_57_797)"/>
<mask id="path-187-inside-93_57_797" fill="white">
<path d="M48 167H72V143H48V167Z"/>
</mask>
<path d="M72 143V142.625H72.375V143H72ZM71.625 167V143H72.375V167H71.625ZM72 143.375H48V142.625H72V143.375Z" fill="#D0D5DD" mask="url(#path-187-inside-93_57_797)"/>
<mask id="path-189-inside-94_57_797" fill="white">
<path d="M72 167H96V143H72V167Z"/>
</mask>
<path d="M96 143V142.625H96.375V143H96ZM95.625 167V143H96.375V167H95.625ZM96 143.375H72V142.625H96V143.375Z" fill="#D0D5DD" mask="url(#path-189-inside-94_57_797)"/>
<mask id="path-191-inside-95_57_797" fill="white">
<path d="M96 167H120V143H96V167Z"/>
</mask>
<path d="M120 143V142.625H120.375V143H120ZM119.625 167V143H120.375V167H119.625ZM120 143.375H96V142.625H120V143.375Z" fill="#D0D5DD" mask="url(#path-191-inside-95_57_797)"/>
<mask id="path-193-inside-96_57_797" fill="white">
<path d="M120 167H144V143H120V167Z"/>
</mask>
<path d="M144 143V142.625H144.375V143H144ZM143.625 167V143H144.375V167H143.625ZM144 143.375H120V142.625H144V143.375Z" fill="#D0D5DD" mask="url(#path-193-inside-96_57_797)"/>
<mask id="path-195-inside-97_57_797" fill="white">
<path d="M144 167H168V143H144V167Z"/>
</mask>
<path d="M144 167H168V143H144V167Z" fill="#F2F4F7"/>
<path d="M168 143V142.625H168.375V143H168ZM167.625 167V143H168.375V167H167.625ZM168 143.375H144V142.625H168V143.375Z" fill="#D0D5DD" mask="url(#path-195-inside-97_57_797)"/>
<mask id="path-197-inside-98_57_797" fill="white">
<path d="M168 167H192V143H168V167Z"/>
</mask>
<path d="M192 143V142.625H192.375V143H192ZM191.625 167V143H192.375V167H191.625ZM192 143.375H168V142.625H192V143.375Z" fill="#D0D5DD" mask="url(#path-197-inside-98_57_797)"/>
<mask id="path-199-inside-99_57_797" fill="white">
<path d="M192 167H216V143H192V167Z"/>
</mask>
<path d="M216 143V142.625H216.375V143H216ZM215.625 167V143H216.375V167H215.625ZM216 143.375H192V142.625H216V143.375Z" fill="#D0D5DD" mask="url(#path-199-inside-99_57_797)"/>
<mask id="path-201-inside-100_57_797" fill="white">
<path d="M216 167H240V143H216V167Z"/>
</mask>
<path d="M240 143V142.625H240.375V143H240ZM239.625 167V143H240.375V167H239.625ZM240 143.375H216V142.625H240V143.375Z" fill="#D0D5DD" mask="url(#path-201-inside-100_57_797)"/>
<mask id="path-203-inside-101_57_797" fill="white">
<path d="M240 167H264V143H240V167Z"/>
</mask>
<path d="M264 143V142.625H264.375V143H264ZM263.625 167V143H264.375V167H263.625ZM264 143.375H240V142.625H264V143.375Z" fill="#D0D5DD" mask="url(#path-203-inside-101_57_797)"/>
<mask id="path-205-inside-102_57_797" fill="white">
<path d="M264 167H288V143H264V167Z"/>
</mask>
<path d="M288 143V142.625H288.375V143H288ZM287.625 167V143H288.375V167H287.625ZM288 143.375H264V142.625H288V143.375Z" fill="#D0D5DD" mask="url(#path-205-inside-102_57_797)"/>
<mask id="path-207-inside-103_57_797" fill="white">
<path d="M288 167H312V143H288V167Z"/>
</mask>
<path d="M312 143V142.625H312.375V143H312ZM311.625 167V143H312.375V167H311.625ZM312 143.375H288V142.625H312V143.375Z" fill="#D0D5DD" mask="url(#path-207-inside-103_57_797)"/>
<mask id="path-209-inside-104_57_797" fill="white">
<path d="M312 167H336V143H312V167Z"/>
</mask>
<path d="M336 143V142.625H336.375V143H336ZM335.625 167V143H336.375V167H335.625ZM336 143.375H312V142.625H336V143.375Z" fill="#D0D5DD" mask="url(#path-209-inside-104_57_797)"/>
<mask id="path-211-inside-105_57_797" fill="white">
<path d="M336 167H360V143H336V167Z"/>
</mask>
<path d="M360 143V142.625H360.375V143H360ZM359.625 167V143H360.375V167H359.625ZM360 143.375H336V142.625H360V143.375Z" fill="#D0D5DD" mask="url(#path-211-inside-105_57_797)"/>
<mask id="path-213-inside-106_57_797" fill="white">
<path d="M0 143H24V119H0V143Z"/>
</mask>
<path d="M24 119V118.625H24.375V119H24ZM23.625 143V119H24.375V143H23.625ZM24 119.375H0V118.625H24V119.375Z" fill="#D0D5DD" mask="url(#path-213-inside-106_57_797)"/>
<mask id="path-215-inside-107_57_797" fill="white">
<path d="M24 143H48V119H24V143Z"/>
</mask>
<path d="M48 119V118.625H48.375V119H48ZM47.625 143V119H48.375V143H47.625ZM48 119.375H24V118.625H48V119.375Z" fill="#D0D5DD" mask="url(#path-215-inside-107_57_797)"/>
<mask id="path-217-inside-108_57_797" fill="white">
<path d="M48 143H72V119H48V143Z"/>
</mask>
<path d="M72 119V118.625H72.375V119H72ZM71.625 143V119H72.375V143H71.625ZM72 119.375H48V118.625H72V119.375Z" fill="#D0D5DD" mask="url(#path-217-inside-108_57_797)"/>
<mask id="path-219-inside-109_57_797" fill="white">
<path d="M72 143H96V119H72V143Z"/>
</mask>
<path d="M96 119V118.625H96.375V119H96ZM95.625 143V119H96.375V143H95.625ZM96 119.375H72V118.625H96V119.375Z" fill="#D0D5DD" mask="url(#path-219-inside-109_57_797)"/>
<mask id="path-221-inside-110_57_797" fill="white">
<path d="M96 143H120V119H96V143Z"/>
</mask>
<path d="M96 143H120V119H96V143Z" fill="#F2F4F7"/>
<path d="M120 119V118.625H120.375V119H120ZM119.625 143V119H120.375V143H119.625ZM120 119.375H96V118.625H120V119.375Z" fill="#D0D5DD" mask="url(#path-221-inside-110_57_797)"/>
<mask id="path-223-inside-111_57_797" fill="white">
<path d="M120 143H144V119H120V143Z"/>
</mask>
<path d="M144 119V118.625H144.375V119H144ZM143.625 143V119H144.375V143H143.625ZM144 119.375H120V118.625H144V119.375Z" fill="#D0D5DD" mask="url(#path-223-inside-111_57_797)"/>
<mask id="path-225-inside-112_57_797" fill="white">
<path d="M144 143H168V119H144V143Z"/>
</mask>
<path d="M168 119V118.625H168.375V119H168ZM167.625 143V119H168.375V143H167.625ZM168 119.375H144V118.625H168V119.375Z" fill="#D0D5DD" mask="url(#path-225-inside-112_57_797)"/>
<mask id="path-227-inside-113_57_797" fill="white">
<path d="M168 143H192V119H168V143Z"/>
</mask>
<path d="M192 119V118.625H192.375V119H192ZM191.625 143V119H192.375V143H191.625ZM192 119.375H168V118.625H192V119.375Z" fill="#D0D5DD" mask="url(#path-227-inside-113_57_797)"/>
<mask id="path-229-inside-114_57_797" fill="white">
<path d="M192 143H216V119H192V143Z"/>
</mask>
<path d="M216 119V118.625H216.375V119H216ZM215.625 143V119H216.375V143H215.625ZM216 119.375H192V118.625H216V119.375Z" fill="#D0D5DD" mask="url(#path-229-inside-114_57_797)"/>
<mask id="path-231-inside-115_57_797" fill="white">
<path d="M216 143H240V119H216V143Z"/>
</mask>
<path d="M240 119V118.625H240.375V119H240ZM239.625 143V119H240.375V143H239.625ZM240 119.375H216V118.625H240V119.375Z" fill="#D0D5DD" mask="url(#path-231-inside-115_57_797)"/>
<mask id="path-233-inside-116_57_797" fill="white">
<path d="M240 143H264V119H240V143Z"/>
</mask>
<path d="M240 143H264V119H240V143Z" fill="#F2F4F7"/>
<path d="M264 119V118.625H264.375V119H264ZM263.625 143V119H264.375V143H263.625ZM264 119.375H240V118.625H264V119.375Z" fill="#D0D5DD" mask="url(#path-233-inside-116_57_797)"/>
<mask id="path-235-inside-117_57_797" fill="white">
<path d="M264 143H288V119H264V143Z"/>
</mask>
<path d="M288 119V118.625H288.375V119H288ZM287.625 143V119H288.375V143H287.625ZM288 119.375H264V118.625H288V119.375Z" fill="#D0D5DD" mask="url(#path-235-inside-117_57_797)"/>
<mask id="path-237-inside-118_57_797" fill="white">
<path d="M288 143H312V119H288V143Z"/>
</mask>
<path d="M312 119V118.625H312.375V119H312ZM311.625 143V119H312.375V143H311.625ZM312 119.375H288V118.625H312V119.375Z" fill="#D0D5DD" mask="url(#path-237-inside-118_57_797)"/>
<mask id="path-239-inside-119_57_797" fill="white">
<path d="M312 143H336V119H312V143Z"/>
</mask>
<path d="M336 119V118.625H336.375V119H336ZM335.625 143V119H336.375V143H335.625ZM336 119.375H312V118.625H336V119.375Z" fill="#D0D5DD" mask="url(#path-239-inside-119_57_797)"/>
<mask id="path-241-inside-120_57_797" fill="white">
<path d="M336 143H360V119H336V143Z"/>
</mask>
<path d="M360 119V118.625H360.375V119H360ZM359.625 143V119H360.375V143H359.625ZM360 119.375H336V118.625H360V119.375Z" fill="#D0D5DD" mask="url(#path-241-inside-120_57_797)"/>
<mask id="path-243-inside-121_57_797" fill="white">
<path d="M0 119H24V95H0V119Z"/>
</mask>
<path d="M24 95V94.625H24.375V95H24ZM23.625 119V95H24.375V119H23.625ZM24 95.375H0V94.625H24V95.375Z" fill="#D0D5DD" mask="url(#path-243-inside-121_57_797)"/>
<mask id="path-245-inside-122_57_797" fill="white">
<path d="M24 119H48V95H24V119Z"/>
</mask>
<path d="M48 95V94.625H48.375V95H48ZM47.625 119V95H48.375V119H47.625ZM48 95.375H24V94.625H48V95.375Z" fill="#D0D5DD" mask="url(#path-245-inside-122_57_797)"/>
<mask id="path-247-inside-123_57_797" fill="white">
<path d="M48 119H72V95H48V119Z"/>
</mask>
<path d="M48 119H72V95H48V119Z" fill="#F2F4F7"/>
<path d="M72 95V94.625H72.375V95H72ZM71.625 119V95H72.375V119H71.625ZM72 95.375H48V94.625H72V95.375Z" fill="#D0D5DD" mask="url(#path-247-inside-123_57_797)"/>
<mask id="path-249-inside-124_57_797" fill="white">
<path d="M72 119H96V95H72V119Z"/>
</mask>
<path d="M96 95V94.625H96.375V95H96ZM95.625 119V95H96.375V119H95.625ZM96 95.375H72V94.625H96V95.375Z" fill="#D0D5DD" mask="url(#path-249-inside-124_57_797)"/>
<mask id="path-251-inside-125_57_797" fill="white">
<path d="M96 119H120V95H96V119Z"/>
</mask>
<path d="M120 95V94.625H120.375V95H120ZM119.625 119V95H120.375V119H119.625ZM120 95.375H96V94.625H120V95.375Z" fill="#D0D5DD" mask="url(#path-251-inside-125_57_797)"/>
<mask id="path-253-inside-126_57_797" fill="white">
<path d="M120 119H144V95H120V119Z"/>
</mask>
<path d="M144 95V94.625H144.375V95H144ZM143.625 119V95H144.375V119H143.625ZM144 95.375H120V94.625H144V95.375Z" fill="#D0D5DD" mask="url(#path-253-inside-126_57_797)"/>
<mask id="path-255-inside-127_57_797" fill="white">
<path d="M144 119H168V95H144V119Z"/>
</mask>
<path d="M168 95V94.625H168.375V95H168ZM167.625 119V95H168.375V119H167.625ZM168 95.375H144V94.625H168V95.375Z" fill="#D0D5DD" mask="url(#path-255-inside-127_57_797)"/>
<mask id="path-257-inside-128_57_797" fill="white">
<path d="M168 119H192V95H168V119Z"/>
</mask>
<path d="M192 95V94.625H192.375V95H192ZM191.625 119V95H192.375V119H191.625ZM192 95.375H168V94.625H192V95.375Z" fill="#D0D5DD" mask="url(#path-257-inside-128_57_797)"/>
<mask id="path-259-inside-129_57_797" fill="white">
<path d="M192 119H216V95H192V119Z"/>
</mask>
<path d="M216 95V94.625H216.375V95H216ZM215.625 119V95H216.375V119H215.625ZM216 95.375H192V94.625H216V95.375Z" fill="#D0D5DD" mask="url(#path-259-inside-129_57_797)"/>
<mask id="path-261-inside-130_57_797" fill="white">
<path d="M216 119H240V95H216V119Z"/>
</mask>
<path d="M240 95V94.625H240.375V95H240ZM239.625 119V95H240.375V119H239.625ZM240 95.375H216V94.625H240V95.375Z" fill="#D0D5DD" mask="url(#path-261-inside-130_57_797)"/>
<mask id="path-263-inside-131_57_797" fill="white">
<path d="M240 119H264V95H240V119Z"/>
</mask>
<path d="M264 95V94.625H264.375V95H264ZM263.625 119V95H264.375V119H263.625ZM264 95.375H240V94.625H264V95.375Z" fill="#D0D5DD" mask="url(#path-263-inside-131_57_797)"/>
<mask id="path-265-inside-132_57_797" fill="white">
<path d="M264 119H288V95H264V119Z"/>
</mask>
<path d="M288 95V94.625H288.375V95H288ZM287.625 119V95H288.375V119H287.625ZM288 95.375H264V94.625H288V95.375Z" fill="#D0D5DD" mask="url(#path-265-inside-132_57_797)"/>
<mask id="path-267-inside-133_57_797" fill="white">
<path d="M288 119H312V95H288V119Z"/>
</mask>
<path d="M312 95V94.625H312.375V95H312ZM311.625 119V95H312.375V119H311.625ZM312 95.375H288V94.625H312V95.375Z" fill="#D0D5DD" mask="url(#path-267-inside-133_57_797)"/>
<mask id="path-269-inside-134_57_797" fill="white">
<path d="M312 119H336V95H312V119Z"/>
</mask>
<path d="M312 119H336V95H312V119Z" fill="#F2F4F7"/>
<path d="M336 95V94.625H336.375V95H336ZM335.625 119V95H336.375V119H335.625ZM336 95.375H312V94.625H336V95.375Z" fill="#D0D5DD" mask="url(#path-269-inside-134_57_797)"/>
<mask id="path-271-inside-135_57_797" fill="white">
<path d="M336 119H360V95H336V119Z"/>
</mask>
<path d="M360 95V94.625H360.375V95H360ZM359.625 119V95H360.375V119H359.625ZM360 95.375H336V94.625H360V95.375Z" fill="#D0D5DD" mask="url(#path-271-inside-135_57_797)"/>
<mask id="path-273-inside-136_57_797" fill="white">
<path d="M0 95H24V71H0V95Z"/>
</mask>
<path d="M24 71V70.625H24.375V71H24ZM23.625 95V71H24.375V95H23.625ZM24 71.375H0V70.625H24V71.375Z" fill="#D0D5DD" mask="url(#path-273-inside-136_57_797)"/>
<mask id="path-275-inside-137_57_797" fill="white">
<path d="M24 95H48V71H24V95Z"/>
</mask>
<path d="M48 71V70.625H48.375V71H48ZM47.625 95V71H48.375V95H47.625ZM48 71.375H24V70.625H48V71.375Z" fill="#D0D5DD" mask="url(#path-275-inside-137_57_797)"/>
<mask id="path-277-inside-138_57_797" fill="white">
<path d="M48 95H72V71H48V95Z"/>
</mask>
<path d="M72 71V70.625H72.375V71H72ZM71.625 95V71H72.375V95H71.625ZM72 71.375H48V70.625H72V71.375Z" fill="#D0D5DD" mask="url(#path-277-inside-138_57_797)"/>
<mask id="path-279-inside-139_57_797" fill="white">
<path d="M72 95H96V71H72V95Z"/>
</mask>
<path d="M96 71V70.625H96.375V71H96ZM95.625 95V71H96.375V95H95.625ZM96 71.375H72V70.625H96V71.375Z" fill="#D0D5DD" mask="url(#path-279-inside-139_57_797)"/>
<mask id="path-281-inside-140_57_797" fill="white">
<path d="M96 95H120V71H96V95Z"/>
</mask>
<path d="M120 71V70.625H120.375V71H120ZM119.625 95V71H120.375V95H119.625ZM120 71.375H96V70.625H120V71.375Z" fill="#D0D5DD" mask="url(#path-281-inside-140_57_797)"/>
<mask id="path-283-inside-141_57_797" fill="white">
<path d="M120 95H144V71H120V95Z"/>
</mask>
<path d="M144 71V70.625H144.375V71H144ZM143.625 95V71H144.375V95H143.625ZM144 71.375H120V70.625H144V71.375Z" fill="#D0D5DD" mask="url(#path-283-inside-141_57_797)"/>
<mask id="path-285-inside-142_57_797" fill="white">
<path d="M144 95H168V71H144V95Z"/>
</mask>
<path d="M144 95H168V71H144V95Z" fill="#F2F4F7"/>
<path d="M168 71V70.625H168.375V71H168ZM167.625 95V71H168.375V95H167.625ZM168 71.375H144V70.625H168V71.375Z" fill="#D0D5DD" mask="url(#path-285-inside-142_57_797)"/>
<mask id="path-287-inside-143_57_797" fill="white">
<path d="M168 95H192V71H168V95Z"/>
</mask>
<path d="M192 71V70.625H192.375V71H192ZM191.625 95V71H192.375V95H191.625ZM192 71.375H168V70.625H192V71.375Z" fill="#D0D5DD" mask="url(#path-287-inside-143_57_797)"/>
<mask id="path-289-inside-144_57_797" fill="white">
<path d="M192 95H216V71H192V95Z"/>
</mask>
<path d="M216 71V70.625H216.375V71H216ZM215.625 95V71H216.375V95H215.625ZM216 71.375H192V70.625H216V71.375Z" fill="#D0D5DD" mask="url(#path-289-inside-144_57_797)"/>
<mask id="path-291-inside-145_57_797" fill="white">
<path d="M216 95H240V71H216V95Z"/>
</mask>
<path d="M240 71V70.625H240.375V71H240ZM239.625 95V71H240.375V95H239.625ZM240 71.375H216V70.625H240V71.375Z" fill="#D0D5DD" mask="url(#path-291-inside-145_57_797)"/>
<mask id="path-293-inside-146_57_797" fill="white">
<path d="M240 95H264V71H240V95Z"/>
</mask>
<path d="M264 71V70.625H264.375V71H264ZM263.625 95V71H264.375V95H263.625ZM264 71.375H240V70.625H264V71.375Z" fill="#D0D5DD" mask="url(#path-293-inside-146_57_797)"/>
<mask id="path-295-inside-147_57_797" fill="white">
<path d="M264 95H288V71H264V95Z"/>
</mask>
<path d="M288 71V70.625H288.375V71H288ZM287.625 95V71H288.375V95H287.625ZM288 71.375H264V70.625H288V71.375Z" fill="#D0D5DD" mask="url(#path-295-inside-147_57_797)"/>
<mask id="path-297-inside-148_57_797" fill="white">
<path d="M288 95H312V71H288V95Z"/>
</mask>
<path d="M312 71V70.625H312.375V71H312ZM311.625 95V71H312.375V95H311.625ZM312 71.375H288V70.625H312V71.375Z" fill="#D0D5DD" mask="url(#path-297-inside-148_57_797)"/>
<mask id="path-299-inside-149_57_797" fill="white">
<path d="M312 95H336V71H312V95Z"/>
</mask>
<path d="M336 71V70.625H336.375V71H336ZM335.625 95V71H336.375V95H335.625ZM336 71.375H312V70.625H336V71.375Z" fill="#D0D5DD" mask="url(#path-299-inside-149_57_797)"/>
<mask id="path-301-inside-150_57_797" fill="white">
<path d="M336 95H360V71H336V95Z"/>
</mask>
<path d="M360 71V70.625H360.375V71H360ZM359.625 95V71H360.375V95H359.625ZM360 71.375H336V70.625H360V71.375Z" fill="#D0D5DD" mask="url(#path-301-inside-150_57_797)"/>
<mask id="path-303-inside-151_57_797" fill="white">
<path d="M0 71H24V47H0V71Z"/>
</mask>
<path d="M24 47V46.625H24.375V47H24ZM23.625 71V47H24.375V71H23.625ZM24 47.375H0V46.625H24V47.375Z" fill="#D0D5DD" mask="url(#path-303-inside-151_57_797)"/>
<mask id="path-305-inside-152_57_797" fill="white">
<path d="M24 71H48V47H24V71Z"/>
</mask>
<path d="M48 47V46.625H48.375V47H48ZM47.625 71V47H48.375V71H47.625ZM48 47.375H24V46.625H48V47.375Z" fill="#D0D5DD" mask="url(#path-305-inside-152_57_797)"/>
<mask id="path-307-inside-153_57_797" fill="white">
<path d="M48 71H72V47H48V71Z"/>
</mask>
<path d="M72 47V46.625H72.375V47H72ZM71.625 71V47H72.375V71H71.625ZM72 47.375H48V46.625H72V47.375Z" fill="#D0D5DD" mask="url(#path-307-inside-153_57_797)"/>
<mask id="path-309-inside-154_57_797" fill="white">
<path d="M72 71H96V47H72V71Z"/>
</mask>
<path d="M96 47V46.625H96.375V47H96ZM95.625 71V47H96.375V71H95.625ZM96 47.375H72V46.625H96V47.375Z" fill="#D0D5DD" mask="url(#path-309-inside-154_57_797)"/>
<mask id="path-311-inside-155_57_797" fill="white">
<path d="M96 71H120V47H96V71Z"/>
</mask>
<path d="M96 71H120V47H96V71Z" fill="#F2F4F7"/>
<path d="M120 47V46.625H120.375V47H120ZM119.625 71V47H120.375V71H119.625ZM120 47.375H96V46.625H120V47.375Z" fill="#D0D5DD" mask="url(#path-311-inside-155_57_797)"/>
<mask id="path-313-inside-156_57_797" fill="white">
<path d="M120 71H144V47H120V71Z"/>
</mask>
<path d="M144 47V46.625H144.375V47H144ZM143.625 71V47H144.375V71H143.625ZM144 47.375H120V46.625H144V47.375Z" fill="#D0D5DD" mask="url(#path-313-inside-156_57_797)"/>
<mask id="path-315-inside-157_57_797" fill="white">
<path d="M144 71H168V47H144V71Z"/>
</mask>
<path d="M168 47V46.625H168.375V47H168ZM167.625 71V47H168.375V71H167.625ZM168 47.375H144V46.625H168V47.375Z" fill="#D0D5DD" mask="url(#path-315-inside-157_57_797)"/>
<mask id="path-317-inside-158_57_797" fill="white">
<path d="M168 71H192V47H168V71Z"/>
</mask>
<path d="M192 47V46.625H192.375V47H192ZM191.625 71V47H192.375V71H191.625ZM192 47.375H168V46.625H192V47.375Z" fill="#D0D5DD" mask="url(#path-317-inside-158_57_797)"/>
<mask id="path-319-inside-159_57_797" fill="white">
<path d="M192 71H216V47H192V71Z"/>
</mask>
<path d="M216 47V46.625H216.375V47H216ZM215.625 71V47H216.375V71H215.625ZM216 47.375H192V46.625H216V47.375Z" fill="#D0D5DD" mask="url(#path-319-inside-159_57_797)"/>
<mask id="path-321-inside-160_57_797" fill="white">
<path d="M216 71H240V47H216V71Z"/>
</mask>
<path d="M240 47V46.625H240.375V47H240ZM239.625 71V47H240.375V71H239.625ZM240 47.375H216V46.625H240V47.375Z" fill="#D0D5DD" mask="url(#path-321-inside-160_57_797)"/>
<mask id="path-323-inside-161_57_797" fill="white">
<path d="M240 71H264V47H240V71Z"/>
</mask>
<path d="M264 47V46.625H264.375V47H264ZM263.625 71V47H264.375V71H263.625ZM264 47.375H240V46.625H264V47.375Z" fill="#D0D5DD" mask="url(#path-323-inside-161_57_797)"/>
<mask id="path-325-inside-162_57_797" fill="white">
<path d="M264 71H288V47H264V71Z"/>
</mask>
<path d="M264 71H288V47H264V71Z" fill="#F2F4F7"/>
<path d="M288 47V46.625H288.375V47H288ZM287.625 71V47H288.375V71H287.625ZM288 47.375H264V46.625H288V47.375Z" fill="#D0D5DD" mask="url(#path-325-inside-162_57_797)"/>
<mask id="path-327-inside-163_57_797" fill="white">
<path d="M288 71H312V47H288V71Z"/>
</mask>
<path d="M312 47V46.625H312.375V47H312ZM311.625 71V47H312.375V71H311.625ZM312 47.375H288V46.625H312V47.375Z" fill="#D0D5DD" mask="url(#path-327-inside-163_57_797)"/>
<mask id="path-329-inside-164_57_797" fill="white">
<path d="M312 71H336V47H312V71Z"/>
</mask>
<path d="M336 47V46.625H336.375V47H336ZM335.625 71V47H336.375V71H335.625ZM336 47.375H312V46.625H336V47.375Z" fill="#D0D5DD" mask="url(#path-329-inside-164_57_797)"/>
<mask id="path-331-inside-165_57_797" fill="white">
<path d="M336 71H360V47H336V71Z"/>
</mask>
<path d="M360 47V46.625H360.375V47H360ZM359.625 71V47H360.375V71H359.625ZM360 47.375H336V46.625H360V47.375Z" fill="#D0D5DD" mask="url(#path-331-inside-165_57_797)"/>
<mask id="path-333-inside-166_57_797" fill="white">
<path d="M0 47H24V23H0V47Z"/>
</mask>
<path d="M24 23V22.625H24.375V23H24ZM23.625 47V23H24.375V47H23.625ZM24 23.375H0V22.625H24V23.375Z" fill="#D0D5DD" mask="url(#path-333-inside-166_57_797)"/>
<mask id="path-335-inside-167_57_797" fill="white">
<path d="M24 47H48V23H24V47Z"/>
</mask>
<path d="M48 23V22.625H48.375V23H48ZM47.625 47V23H48.375V47H47.625ZM48 23.375H24V22.625H48V23.375Z" fill="#D0D5DD" mask="url(#path-335-inside-167_57_797)"/>
<mask id="path-337-inside-168_57_797" fill="white">
<path d="M48 47H72V23H48V47Z"/>
</mask>
<path d="M72 23V22.625H72.375V23H72ZM71.625 47V23H72.375V47H71.625ZM72 23.375H48V22.625H72V23.375Z" fill="#D0D5DD" mask="url(#path-337-inside-168_57_797)"/>
<mask id="path-339-inside-169_57_797" fill="white">
<path d="M72 47H96V23H72V47Z"/>
</mask>
<path d="M96 23V22.625H96.375V23H96ZM95.625 47V23H96.375V47H95.625ZM96 23.375H72V22.625H96V23.375Z" fill="#D0D5DD" mask="url(#path-339-inside-169_57_797)"/>
<mask id="path-341-inside-170_57_797" fill="white">
<path d="M96 47H120V23H96V47Z"/>
</mask>
<path d="M120 23V22.625H120.375V23H120ZM119.625 47V23H120.375V47H119.625ZM120 23.375H96V22.625H120V23.375Z" fill="#D0D5DD" mask="url(#path-341-inside-170_57_797)"/>
<mask id="path-343-inside-171_57_797" fill="white">
<path d="M120 47H144V23H120V47Z"/>
</mask>
<path d="M144 23V22.625H144.375V23H144ZM143.625 47V23H144.375V47H143.625ZM144 23.375H120V22.625H144V23.375Z" fill="#D0D5DD" mask="url(#path-343-inside-171_57_797)"/>
<mask id="path-345-inside-172_57_797" fill="white">
<path d="M144 47H168V23H144V47Z"/>
</mask>
<path d="M168 23V22.625H168.375V23H168ZM167.625 47V23H168.375V47H167.625ZM168 23.375H144V22.625H168V23.375Z" fill="#D0D5DD" mask="url(#path-345-inside-172_57_797)"/>
<mask id="path-347-inside-173_57_797" fill="white">
<path d="M168 47H192V23H168V47Z"/>
</mask>
<path d="M192 23V22.625H192.375V23H192ZM191.625 47V23H192.375V47H191.625ZM192 23.375H168V22.625H192V23.375Z" fill="#D0D5DD" mask="url(#path-347-inside-173_57_797)"/>
<mask id="path-349-inside-174_57_797" fill="white">
<path d="M192 47H216V23H192V47Z"/>
</mask>
<path d="M192 47H216V23H192V47Z" fill="#F2F4F7"/>
<path d="M216 23V22.625H216.375V23H216ZM215.625 47V23H216.375V47H215.625ZM216 23.375H192V22.625H216V23.375Z" fill="#D0D5DD" mask="url(#path-349-inside-174_57_797)"/>
<mask id="path-351-inside-175_57_797" fill="white">
<path d="M216 47H240V23H216V47Z"/>
</mask>
<path d="M240 23V22.625H240.375V23H240ZM239.625 47V23H240.375V47H239.625ZM240 23.375H216V22.625H240V23.375Z" fill="#D0D5DD" mask="url(#path-351-inside-175_57_797)"/>
<mask id="path-353-inside-176_57_797" fill="white">
<path d="M240 47H264V23H240V47Z"/>
</mask>
<path d="M264 23V22.625H264.375V23H264ZM263.625 47V23H264.375V47H263.625ZM264 23.375H240V22.625H264V23.375Z" fill="#D0D5DD" mask="url(#path-353-inside-176_57_797)"/>
<mask id="path-355-inside-177_57_797" fill="white">
<path d="M264 47H288V23H264V47Z"/>
</mask>
<path d="M288 23V22.625H288.375V23H288ZM287.625 47V23H288.375V47H287.625ZM288 23.375H264V22.625H288V23.375Z" fill="#D0D5DD" mask="url(#path-355-inside-177_57_797)"/>
<mask id="path-357-inside-178_57_797" fill="white">
<path d="M288 47H312V23H288V47Z"/>
</mask>
<path d="M312 23V22.625H312.375V23H312ZM311.625 47V23H312.375V47H311.625ZM312 23.375H288V22.625H312V23.375Z" fill="#D0D5DD" mask="url(#path-357-inside-178_57_797)"/>
<mask id="path-359-inside-179_57_797" fill="white">
<path d="M312 47H336V23H312V47Z"/>
</mask>
<path d="M312 47H336V23H312V47Z" fill="#F2F4F7"/>
<path d="M336 23V22.625H336.375V23H336ZM335.625 47V23H336.375V47H335.625ZM336 23.375H312V22.625H336V23.375Z" fill="#D0D5DD" mask="url(#path-359-inside-179_57_797)"/>
<mask id="path-361-inside-180_57_797" fill="white">
<path d="M336 47H360V23H336V47Z"/>
</mask>
<path d="M360 23V22.625H360.375V23H360ZM359.625 47V23H360.375V47H359.625ZM360 23.375H336V22.625H360V23.375Z" fill="#D0D5DD" mask="url(#path-361-inside-180_57_797)"/>
<mask id="path-363-inside-181_57_797" fill="white">
<path d="M0 23H24V-1H0V23Z"/>
</mask>
<path d="M24 -1V-1.375H24.375V-1H24ZM23.625 23V-1H24.375V23H23.625ZM24 -0.625H0V-1.375H24V-0.625Z" fill="#D0D5DD" mask="url(#path-363-inside-181_57_797)"/>
<mask id="path-365-inside-182_57_797" fill="white">
<path d="M24 23H48V-1H24V23Z"/>
</mask>
<path d="M48 -1V-1.375H48.375V-1H48ZM47.625 23V-1H48.375V23H47.625ZM48 -0.625H24V-1.375H48V-0.625Z" fill="#D0D5DD" mask="url(#path-365-inside-182_57_797)"/>
<mask id="path-367-inside-183_57_797" fill="white">
<path d="M48 23H72V-1H48V23Z"/>
</mask>
<path d="M72 -1V-1.375H72.375V-1H72ZM71.625 23V-1H72.375V23H71.625ZM72 -0.625H48V-1.375H72V-0.625Z" fill="#D0D5DD" mask="url(#path-367-inside-183_57_797)"/>
<mask id="path-369-inside-184_57_797" fill="white">
<path d="M72 23H96V-1H72V23Z"/>
</mask>
<path d="M96 -1V-1.375H96.375V-1H96ZM95.625 23V-1H96.375V23H95.625ZM96 -0.625H72V-1.375H96V-0.625Z" fill="#D0D5DD" mask="url(#path-369-inside-184_57_797)"/>
<mask id="path-371-inside-185_57_797" fill="white">
<path d="M96 23H120V-1H96V23Z"/>
</mask>
<path d="M96 23H120V-1H96V23Z" fill="#F2F4F7"/>
<path d="M120 -1V-1.375H120.375V-1H120ZM119.625 23V-1H120.375V23H119.625ZM120 -0.625H96V-1.375H120V-0.625Z" fill="#D0D5DD" mask="url(#path-371-inside-185_57_797)"/>
<mask id="path-373-inside-186_57_797" fill="white">
<path d="M120 23H144V-1H120V23Z"/>
</mask>
<path d="M144 -1V-1.375H144.375V-1H144ZM143.625 23V-1H144.375V23H143.625ZM144 -0.625H120V-1.375H144V-0.625Z" fill="#D0D5DD" mask="url(#path-373-inside-186_57_797)"/>
<mask id="path-375-inside-187_57_797" fill="white">
<path d="M144 23H168V-1H144V23Z"/>
</mask>
<path d="M168 -1V-1.375H168.375V-1H168ZM167.625 23V-1H168.375V23H167.625ZM168 -0.625H144V-1.375H168V-0.625Z" fill="#D0D5DD" mask="url(#path-375-inside-187_57_797)"/>
<mask id="path-377-inside-188_57_797" fill="white">
<path d="M168 23H192V-1H168V23Z"/>
</mask>
<path d="M192 -1V-1.375H192.375V-1H192ZM191.625 23V-1H192.375V23H191.625ZM192 -0.625H168V-1.375H192V-0.625Z" fill="#D0D5DD" mask="url(#path-377-inside-188_57_797)"/>
<mask id="path-379-inside-189_57_797" fill="white">
<path d="M192 23H216V-1H192V23Z"/>
</mask>
<path d="M216 -1V-1.375H216.375V-1H216ZM215.625 23V-1H216.375V23H215.625ZM216 -0.625H192V-1.375H216V-0.625Z" fill="#D0D5DD" mask="url(#path-379-inside-189_57_797)"/>
<mask id="path-381-inside-190_57_797" fill="white">
<path d="M216 23H240V-1H216V23Z"/>
</mask>
<path d="M240 -1V-1.375H240.375V-1H240ZM239.625 23V-1H240.375V23H239.625ZM240 -0.625H216V-1.375H240V-0.625Z" fill="#D0D5DD" mask="url(#path-381-inside-190_57_797)"/>
<mask id="path-383-inside-191_57_797" fill="white">
<path d="M240 23H264V-1H240V23Z"/>
</mask>
<path d="M264 -1V-1.375H264.375V-1H264ZM263.625 23V-1H264.375V23H263.625ZM264 -0.625H240V-1.375H264V-0.625Z" fill="#D0D5DD" mask="url(#path-383-inside-191_57_797)"/>
<mask id="path-385-inside-192_57_797" fill="white">
<path d="M264 23H288V-1H264V23Z"/>
</mask>
<path d="M288 -1V-1.375H288.375V-1H288ZM287.625 23V-1H288.375V23H287.625ZM288 -0.625H264V-1.375H288V-0.625Z" fill="#D0D5DD" mask="url(#path-385-inside-192_57_797)"/>
<mask id="path-387-inside-193_57_797" fill="white">
<path d="M288 23H312V-1H288V23Z"/>
</mask>
<path d="M312 -1V-1.375H312.375V-1H312ZM311.625 23V-1H312.375V23H311.625ZM312 -0.625H288V-1.375H312V-0.625Z" fill="#D0D5DD" mask="url(#path-387-inside-193_57_797)"/>
<mask id="path-389-inside-194_57_797" fill="white">
<path d="M312 23H336V-1H312V23Z"/>
</mask>
<path d="M336 -1V-1.375H336.375V-1H336ZM335.625 23V-1H336.375V23H335.625ZM336 -0.625H312V-1.375H336V-0.625Z" fill="#D0D5DD" mask="url(#path-389-inside-194_57_797)"/>
<mask id="path-391-inside-195_57_797" fill="white">
<path d="M336 23H360V-1H336V23Z"/>
</mask>
<path d="M360 -1V-1.375H360.375V-1H360ZM359.625 23V-1H360.375V23H359.625ZM360 -0.625H336V-1.375H360V-0.625Z" fill="#D0D5DD" mask="url(#path-391-inside-195_57_797)"/>
</g>
<rect x="0.1875" y="-0.1875" width="359.625" height="359.625" transform="matrix(1 0 0 -1 0 310.625)" stroke="#D0D5DD" stroke-width="0.375"/>
</g>
<defs>
<radialGradient id="paint0_radial_57_797" cx="0" cy="0" r="1" gradientUnits="userSpaceOnUse" gradientTransform="translate(180 -4.29153e-05) rotate(90) scale(360 187.897)">
<stop/>
<stop offset="0.953125" stop-opacity="0"/>
</radialGradient>
<clipPath id="clip0_57_797">
<rect width="360" height="360" transform="matrix(1 0 0 -1 0 311)" fill="white"/>
</clipPath>
</defs>
</svg>
