<svg width="280" height="240" viewBox="0 0 280 240" fill="none" xmlns="http://www.w3.org/2000/svg">
<path d="M177.632 239.808H100.821C93.9467 239.808 88.374 234.235 88.374 227.361V58.8322C88.374 51.958 93.9467 46.3853 100.821 46.3853H177.632C184.506 46.3853 190.079 51.958 190.079 58.8322V227.361C190.079 234.235 184.506 239.808 177.632 239.808Z" fill="#00324F"/>
<path d="M178.367 235.014H100.086C96.0525 235.014 92.7825 231.744 92.7825 227.711V58.4826C92.7825 54.4494 96.0525 51.1794 100.086 51.1794H178.367C182.4 51.1794 185.67 54.4494 185.67 58.4826V227.71C185.67 231.744 182.401 235.014 178.367 235.014Z" fill="white"/>
<path d="M154.67 62.2432H123.783C119.967 62.2432 116.874 59.1502 116.874 55.3345V49.1514C116.874 48.9487 117.038 48.7849 117.241 48.7849H161.58V55.3345C161.579 59.1502 158.486 62.2432 154.67 62.2432Z" fill="#00324F"/>
<path d="M115.88 40.1178C115.95 52.3325 106.106 62.2917 93.8909 62.3622C81.6761 62.4327 71.717 52.5874 71.6472 40.3734C71.5767 28.1579 81.4213 18.1995 93.636 18.1289C105.85 18.0584 115.809 27.903 115.88 40.1178Z" fill="#B4E0F9"/>
<path d="M110.224 39.8004C110.278 49.0867 102.794 56.6573 93.5083 56.7101C84.222 56.7638 76.6514 49.2799 76.5978 39.9943C76.5442 30.708 84.028 23.1375 93.3136 23.0839C102.6 23.031 110.17 30.5141 110.224 39.8004Z" fill="#71B9E2"/>
<path d="M110.703 40.4982C110.756 49.659 103.373 57.1288 94.2112 57.181C85.0498 57.2339 77.5814 49.8507 77.5285 40.6892C77.4756 31.5277 84.8588 24.0586 94.0203 24.0057C103.181 23.9536 110.65 31.3375 110.703 40.4982Z" fill="#FF725E"/>
<path d="M110.703 40.4982C110.756 49.659 103.373 57.1288 94.2112 57.181C85.0498 57.2339 77.5814 49.8507 77.5285 40.6892C77.4756 31.5277 84.8588 24.0586 94.0203 24.0057C103.181 23.9536 110.65 31.3375 110.703 40.4982Z" fill="#8CCDF2"/>
<path d="M153.701 19.6053C153.746 27.344 147.508 33.6534 139.77 33.6982C132.031 33.743 125.722 27.5056 125.677 19.7669C125.632 12.0282 131.869 5.7188 139.609 5.674C147.347 5.62993 153.656 11.8666 153.701 19.6053Z" fill="#B4E0F9"/>
<path d="M150.118 19.4048C150.152 25.2882 145.41 30.0845 139.528 30.1182C133.644 30.152 128.848 25.4108 128.814 19.5275C128.781 13.6441 133.522 8.84778 139.405 8.81399C145.287 8.7802 150.083 13.5214 150.118 19.4048Z" fill="#71B9E2"/>
<path d="M150.42 19.8462C150.454 25.6502 145.776 30.3826 139.972 30.4157C134.168 30.4495 129.436 25.7714 129.403 19.9674C129.369 14.1633 134.047 9.43167 139.851 9.39788C145.656 9.36483 150.387 14.0421 150.42 19.8462Z" fill="#FF725E"/>
<path d="M150.42 19.8462C150.454 25.6502 145.776 30.3826 139.972 30.4157C134.168 30.4495 129.436 25.7714 129.403 19.9674C129.369 14.1633 134.047 9.43167 139.851 9.39788C145.656 9.36483 150.387 14.0421 150.42 19.8462Z" fill="#8CCDF2"/>
<g filter="url(#filter0_d_57_1287)">
<mask id="mask0_57_1287" style="mask-type:alpha" maskUnits="userSpaceOnUse" x="133" y="13" width="14" height="14">
<rect x="133" y="13" width="14" height="14" fill="#D9D9D9"/>
</mask>
<g mask="url(#mask0_57_1287)">
<path d="M141.006 25.25L137.083 21.1667V20H139.125C139.64 20 140.085 19.8323 140.459 19.4969C140.834 19.1615 141.06 18.7458 141.137 18.25H136.5V17.0833H140.963C140.797 16.7431 140.552 16.4635 140.226 16.2448C139.9 16.026 139.533 15.9167 139.125 15.9167H136.5V14.75H143.5V15.9167H141.604C141.74 16.0819 141.862 16.2618 141.969 16.4562C142.076 16.6507 142.158 16.8597 142.217 17.0833H143.5V18.25H142.319C142.241 19.0764 141.901 19.7691 141.298 20.3281C140.695 20.8872 139.971 21.1667 139.125 21.1667H138.702L142.625 25.25H141.006Z" fill="white"/>
</g>
</g>
<path d="M243.291 156.016H277.019C278.665 156.016 280 154.681 280 153.034V118.194C280 116.548 278.666 115.213 277.019 115.213H243.291C241.644 115.213 240.31 116.547 240.31 118.194V153.034C240.31 154.681 241.644 156.016 243.291 156.016Z" fill="#9FD9FB"/>
<path d="M277.018 115.213H243.29C241.644 115.213 240.309 116.548 240.309 118.195V126.962H279.999V118.195C279.999 116.548 278.665 115.213 277.018 115.213Z" fill="#116799"/>
<path d="M269.072 137.146H274.375C274.695 137.146 274.953 136.887 274.953 136.568V131.264C274.953 130.945 274.694 130.686 274.375 130.686H269.072C268.753 130.686 268.494 130.946 268.494 131.264V136.568C268.493 136.887 268.753 137.146 269.072 137.146Z" fill="#E4F5FF"/>
<path d="M261.497 137.146H266.8C267.119 137.146 267.378 136.887 267.378 136.568V131.264C267.378 130.945 267.119 130.686 266.8 130.686H261.497C261.177 130.686 260.919 130.946 260.919 131.264V136.568C260.919 136.887 261.177 137.146 261.497 137.146Z" fill="white"/>
<path d="M250.713 118.267C249.983 118.267 249.39 117.675 249.39 116.944V112.26C249.39 111.529 249.983 110.937 250.713 110.937C251.443 110.937 252.036 111.529 252.036 112.26V116.944C252.036 117.675 251.444 118.267 250.713 118.267Z" fill="#8ECFF4"/>
<path d="M257.409 118.274C256.679 118.274 256.086 117.682 256.086 116.951V112.267C256.086 111.536 256.679 110.944 257.409 110.944C258.139 110.944 258.732 111.536 258.732 112.267V116.951C258.732 117.682 258.139 118.274 257.409 118.274Z" fill="#8ECFF4"/>
<path d="M263.794 118.269C263.064 118.269 262.471 117.677 262.471 116.946V112.262C262.471 111.531 263.064 110.939 263.794 110.939C264.524 110.939 265.117 111.531 265.117 112.262V116.946C265.117 117.677 264.525 118.269 263.794 118.269Z" fill="#8ECFF4"/>
<path d="M253.868 137.146H259.171C259.491 137.146 259.749 136.887 259.749 136.568V131.264C259.749 130.945 259.491 130.686 259.171 130.686H253.868C253.549 130.686 253.29 130.946 253.29 131.264V136.568C253.29 136.887 253.549 137.146 253.868 137.146Z" fill="#E4F5FF"/>
<path d="M246.292 137.146H251.596C251.915 137.146 252.174 136.887 252.174 136.568V131.264C252.174 130.945 251.914 130.686 251.596 130.686H246.292C245.973 130.686 245.714 130.946 245.714 131.264V136.568C245.714 136.887 245.974 137.146 246.292 137.146Z" fill="#E4F5FF"/>
<path d="M269.017 144.337H274.32C274.64 144.337 274.898 144.078 274.898 143.759V138.456C274.898 138.136 274.64 137.878 274.32 137.878H269.017C268.698 137.878 268.439 138.137 268.439 138.456V143.759C268.439 144.078 268.698 144.337 269.017 144.337Z" fill="#E4F5FF"/>
<path d="M261.442 144.337H266.745C267.064 144.337 267.323 144.078 267.323 143.759V138.456C267.323 138.136 267.063 137.878 266.745 137.878H261.442C261.122 137.878 260.864 138.137 260.864 138.456V143.759C260.864 144.078 261.123 144.337 261.442 144.337Z" fill="white"/>
<path d="M253.814 144.337H259.117C259.436 144.337 259.695 144.078 259.695 143.759V138.456C259.695 138.136 259.436 137.878 259.117 137.878H253.814C253.494 137.878 253.236 138.137 253.236 138.456V143.759C253.235 144.078 253.494 144.337 253.814 144.337Z" fill="#E4F5FF"/>
<path d="M246.238 144.337H251.541C251.86 144.337 252.119 144.078 252.119 143.759V138.456C252.119 138.136 251.86 137.878 251.541 137.878H246.238C245.918 137.878 245.66 138.137 245.66 138.456V143.759C245.66 144.078 245.918 144.337 246.238 144.337Z" fill="#E4F5FF"/>
<path d="M268.964 151.589H274.267C274.586 151.589 274.845 151.33 274.845 151.011V145.708C274.845 145.388 274.585 145.13 274.267 145.13H268.964C268.644 145.13 268.385 145.389 268.385 145.708V151.011C268.385 151.33 268.644 151.589 268.964 151.589Z" fill="#E4F5FF"/>
<path d="M261.388 151.589H266.691C267.01 151.589 267.269 151.33 267.269 151.011V145.708C267.269 145.388 267.01 145.13 266.691 145.13H261.388C261.068 145.13 260.81 145.389 260.81 145.708V151.011C260.81 151.33 261.069 151.589 261.388 151.589Z" fill="white"/>
<path d="M253.76 151.589H259.063C259.383 151.589 259.641 151.33 259.641 151.011V145.708C259.641 145.388 259.382 145.13 259.063 145.13H253.76C253.441 145.13 253.182 145.389 253.182 145.708V151.011C253.181 151.33 253.441 151.589 253.76 151.589Z" fill="#E4F5FF"/>
<path d="M246.184 151.589H251.487C251.807 151.589 252.065 151.33 252.065 151.011V145.708C252.065 145.388 251.806 145.13 251.487 145.13H246.184C245.865 145.13 245.606 145.389 245.606 145.708V151.011C245.606 151.33 245.865 151.589 246.184 151.589Z" fill="#E4F5FF"/>
<path d="M270.194 118.269C269.464 118.269 268.872 117.677 268.872 116.946V112.262C268.872 111.531 269.464 110.939 270.194 110.939C270.925 110.939 271.517 111.531 271.517 112.262V116.946C271.517 117.677 270.925 118.269 270.194 118.269Z" fill="#8ECFF4"/>
<path opacity="0.35" d="M214.007 86.4179H117.25C114.106 86.4179 111.557 88.9666 111.557 92.1103V92.999V142.463C111.557 145.607 114.106 148.155 117.25 148.155H214.006C217.15 148.155 219.699 145.607 219.699 142.463V133.534V92.1103C219.699 88.9666 217.15 86.4179 214.007 86.4179Z" fill="#9FD9FB"/>
<path d="M211.502 146.178H114.745C111.601 146.178 109.052 143.629 109.052 140.485V90.1323C109.052 86.9886 111.601 84.4399 114.745 84.4399H211.502C214.645 84.4399 217.194 86.9886 217.194 90.1323V140.485C217.194 143.63 214.645 146.178 211.502 146.178Z" fill="#9FD9FB"/>
<path d="M217.194 90.133C217.194 86.9893 214.645 84.4406 211.502 84.4406H114.745C111.601 84.4406 109.052 86.9893 109.052 90.133V91.0217C120.894 91.5594 143.847 95.4412 159.857 115.995C178.285 139.651 203.048 137.338 217.193 131.556V90.133H217.194Z" fill="#8ECFF4"/>
<path d="M133.617 118.862H120.111C118.914 118.862 117.944 117.892 117.944 116.696V109.623C117.944 108.427 118.914 107.456 120.111 107.456H133.617C134.814 107.456 135.784 108.427 135.784 109.623V116.696C135.784 117.892 134.815 118.862 133.617 118.862Z" fill="white"/>
<path d="M209.759 95.4655H190.201C189.706 95.4655 189.305 95.0644 189.305 94.5694V90.8051C189.305 90.31 189.706 89.909 190.201 89.909H209.759C210.254 89.909 210.655 90.31 210.655 90.8051V94.5694C210.655 95.0637 210.254 95.4655 209.759 95.4655Z" fill="#00324F"/>
<path d="M135.93 128.5H119.194C118.148 128.5 117.3 127.651 117.3 126.605C117.3 125.56 118.148 124.711 119.194 124.711H135.93C136.976 124.711 137.825 125.559 137.825 126.605C137.825 127.651 136.976 128.5 135.93 128.5Z" fill="white"/>
<path d="M159.625 128.5H142.889C141.843 128.5 140.995 127.651 140.995 126.605C140.995 125.56 141.843 124.711 142.889 124.711H159.625C160.671 124.711 161.52 125.559 161.52 126.605C161.519 127.651 160.671 128.5 159.625 128.5Z" fill="white"/>
<path d="M183.497 128.5H166.761C165.715 128.5 164.867 127.651 164.867 126.605C164.867 125.56 165.715 124.711 166.761 124.711H183.497C184.543 124.711 185.392 125.559 185.392 126.605C185.391 127.651 184.543 128.5 183.497 128.5Z" fill="white"/>
<path d="M207.192 128.5H190.455C189.409 128.5 188.561 127.651 188.561 126.605C188.561 125.56 189.409 124.711 190.455 124.711H207.192C208.238 124.711 209.086 125.559 209.086 126.605C209.086 127.651 208.238 128.5 207.192 128.5Z" fill="white"/>
<path d="M141.216 141.275H119.446C118.81 141.275 118.295 140.759 118.295 140.124C118.295 139.488 118.81 138.972 119.446 138.972H141.216C141.852 138.972 142.368 139.488 142.368 140.124C142.368 140.759 141.852 141.275 141.216 141.275Z" fill="#00324F"/>
<path d="M207.133 141.275H196.391C195.755 141.275 195.24 140.759 195.24 140.124C195.24 139.488 195.755 138.972 196.391 138.972H207.133C207.769 138.972 208.284 139.488 208.284 140.124C208.284 140.759 207.769 141.275 207.133 141.275Z" fill="#00324F"/>
<mask id="mask1_57_1287" style="mask-type:luminance" maskUnits="userSpaceOnUse" x="117" y="107" width="19" height="12">
<path d="M133.617 118.862H120.111C118.914 118.862 117.944 117.892 117.944 116.696V109.623C117.944 108.427 118.914 107.456 120.111 107.456H133.617C134.814 107.456 135.784 108.427 135.784 109.623V116.696C135.784 117.892 134.815 118.862 133.617 118.862Z" fill="white"/>
</mask>
<g mask="url(#mask1_57_1287)">
<path d="M121.199 107.26C122.78 109.291 125.284 113.9 120.988 119.162" stroke="#8ECFF4" stroke-width="0.346383" stroke-miterlimit="10" stroke-linecap="round"/>
</g>
<mask id="mask2_57_1287" style="mask-type:luminance" maskUnits="userSpaceOnUse" x="117" y="107" width="19" height="12">
<path d="M133.617 118.862H120.111C118.914 118.862 117.944 117.892 117.944 116.696V109.623C117.944 108.427 118.914 107.456 120.111 107.456H133.617C134.814 107.456 135.784 108.427 135.784 109.623V116.696C135.784 117.892 134.815 118.862 133.617 118.862Z" fill="white"/>
</mask>
<g mask="url(#mask2_57_1287)">
<path d="M116.795 113.055H123.34" stroke="#8ECFF4" stroke-width="0.346383" stroke-miterlimit="10"/>
</g>
<mask id="mask3_57_1287" style="mask-type:luminance" maskUnits="userSpaceOnUse" x="117" y="107" width="19" height="12">
<path d="M133.617 118.862H120.111C118.914 118.862 117.944 117.892 117.944 116.696V109.623C117.944 108.427 118.914 107.456 120.111 107.456H133.617C134.814 107.456 135.784 108.427 135.784 109.623V116.696C135.784 117.892 134.815 118.862 133.617 118.862Z" fill="white"/>
</mask>
<g mask="url(#mask3_57_1287)">
<path d="M132.037 107.26C130.456 109.291 127.951 113.9 132.248 119.162" stroke="#8ECFF4" stroke-width="0.346383" stroke-miterlimit="10" stroke-linecap="round"/>
</g>
<mask id="mask4_57_1287" style="mask-type:luminance" maskUnits="userSpaceOnUse" x="117" y="107" width="19" height="12">
<path d="M133.617 118.862H120.111C118.914 118.862 117.944 117.892 117.944 116.696V109.623C117.944 108.427 118.914 107.456 120.111 107.456H133.617C134.814 107.456 135.784 108.427 135.784 109.623V116.696C135.784 117.892 134.815 118.862 133.617 118.862Z" fill="white"/>
</mask>
<g mask="url(#mask4_57_1287)">
<path d="M136.441 113.055H129.895" stroke="#8ECFF4" stroke-width="0.346383" stroke-miterlimit="10"/>
</g>
<path d="M229.3 44.2853C224.453 39.2026 224.098 37.4287 231.665 29.9816C239.23 22.5345 238.048 12.25 238.048 12.25L223.515 11.9701V11.954L223.097 11.9621L222.68 11.954V11.9701L208.146 12.25C208.146 12.25 206.965 22.5345 214.53 29.9816C222.095 37.4287 221.741 39.2018 216.894 44.2853C212.048 49.3688 205.428 54.3333 205.665 63.6718H222.681H223.515H240.531C240.767 54.3333 234.146 49.3681 229.3 44.2853Z" fill="white"/>
<path d="M240.818 66.2029H205.375C204.298 66.2029 203.425 65.3296 203.425 64.2521C203.425 63.1745 204.299 62.3012 205.375 62.3012H240.818C241.896 62.3012 242.768 63.1745 242.768 64.2521C242.769 65.3303 241.896 66.2029 240.818 66.2029Z" fill="#116799"/>
<path d="M240.818 13.8453H205.375C204.298 13.8453 203.425 12.972 203.425 11.8945C203.425 10.817 204.299 9.94366 205.375 9.94366H240.818C241.896 9.94366 242.768 10.817 242.768 11.8945C242.769 12.972 241.896 13.8453 240.818 13.8453Z" fill="#116799"/>
<path d="M216.363 27.3014H230.117C230.58 27.3014 230.832 27.8141 230.534 28.1505L224.28 35.2076C224.197 35.3009 224.152 35.4184 224.152 35.5403V56.8865C224.152 57.1722 224.396 57.4035 224.697 57.4035H236.387C236.625 57.4035 236.835 57.5497 236.907 57.7649L237.69 60.1146C237.8 60.4481 237.538 60.7874 237.17 60.7874H209.04C208.683 60.7874 208.422 60.4672 208.512 60.1396L209.165 57.773C209.228 57.546 209.443 57.3874 209.69 57.3867L221.763 57.3448C222.063 57.3441 222.306 57.1127 222.306 56.8277V35.6542C222.306 35.5345 222.262 35.4177 222.182 35.3251L215.942 28.1468C215.649 27.8097 215.902 27.3014 216.363 27.3014Z" fill="#9FD9FB"/>
<path d="M219.827 211.795C219.827 211.795 219.952 195.635 229.941 194.478C239.931 193.321 243.373 196.288 244.741 196.836C246.109 197.384 242.507 198.121 239.459 201.102C236.412 204.083 236.443 207.8 229.573 209.016C222.702 210.232 220.145 215.293 220.145 215.293L219.827 211.795Z" fill="#116799"/>
<path d="M220.145 215.293C220.145 215.293 223.348 198.715 238.833 198.041" stroke="#1A6D9D" stroke-width="0.346383" stroke-miterlimit="10" stroke-linecap="round"/>
<path d="M220.646 206.052C220.646 206.052 222.142 192.119 213.651 190.132C205.16 188.144 201.901 190.359 200.669 190.695C199.436 191.032 202.466 192.023 204.795 194.894C207.124 197.764 206.728 200.963 212.526 202.692C218.324 204.421 220.025 209.034 220.025 209.034L220.646 206.052Z" fill="#116799"/>
<path d="M220.026 209.034C220.026 209.034 218.911 194.436 205.638 192.319" stroke="#1A6D9D" stroke-width="0.346383" stroke-miterlimit="10" stroke-linecap="round"/>
<path d="M221.572 174.215C221.575 174.215 221.588 174.269 221.608 174.375C221.63 174.494 221.658 174.651 221.694 174.85C221.731 175.064 221.775 175.321 221.827 175.624C221.865 175.934 221.908 176.289 221.957 176.688C222.131 178.289 222.264 180.628 222.1 183.508C221.963 186.39 221.533 189.798 221.053 193.572C220.567 197.346 220.151 201.512 220.083 205.901C219.887 214.688 220.959 222.614 222.109 228.244C222.668 231.067 223.273 233.318 223.672 234.876C223.886 235.642 224.054 236.24 224.172 236.661C224.224 236.857 224.265 237.012 224.296 237.127C224.322 237.232 224.335 237.287 224.331 237.288C224.331 237.288 223.141 233.919 221.952 228.276C220.759 222.645 219.66 214.704 219.855 205.897C219.923 201.498 220.347 197.32 220.845 193.546C221.337 189.771 221.783 186.372 221.939 183.499C222.123 180.628 222.015 178.297 221.868 176.697C221.827 176.299 221.791 175.944 221.759 175.634C221.716 175.33 221.679 175.072 221.648 174.858C221.622 174.657 221.6 174.499 221.584 174.38C221.573 174.272 221.568 174.216 221.572 174.215Z" fill="#00324F"/>
<path d="M231.009 222.584H211.866C211.409 222.584 211.038 222.214 211.038 221.757V219.454C211.038 218.996 211.409 218.626 211.866 218.626H231.009C231.467 218.626 231.837 218.997 231.837 219.454V221.757C231.838 222.214 231.467 222.584 231.009 222.584Z" fill="#21212A"/>
<path d="M226.723 239.313H216.859C216.063 239.313 215.382 238.74 215.247 237.955L212.483 221.947H230.393L228.345 237.885C228.241 238.701 227.546 239.313 226.723 239.313Z" fill="#21212A"/>
<path d="M221.341 189.061C221.341 189.061 222.698 178.478 229.337 178.508C235.976 178.539 237.998 180.755 238.852 181.222C239.705 181.69 237.286 181.888 235.053 183.601C232.82 185.315 232.548 187.754 227.948 188.008C223.349 188.263 221.273 191.379 221.273 191.379L221.341 189.061Z" fill="#116799"/>
<path d="M221.273 191.379C221.273 191.379 224.681 180.766 234.885 181.546" stroke="#1A6D9D" stroke-width="0.346383" stroke-miterlimit="10" stroke-linecap="round"/>
<path d="M222.656 181.064C222.656 181.064 225.12 170.683 218.898 168.369C212.675 166.054 210.001 167.414 209.038 167.55C208.074 167.686 210.268 168.726 211.752 171.117C213.237 173.509 212.632 175.887 216.845 177.748C221.059 179.609 221.902 183.258 221.902 183.258L222.656 181.064Z" fill="#116799"/>
<path d="M221.901 183.257C221.901 183.257 222.458 172.123 212.635 169.253" stroke="#1A6D9D" stroke-width="0.346383" stroke-miterlimit="10" stroke-linecap="round"/>
<path d="M62.6834 66.3902C62.6834 65.0306 61.5816 63.9289 60.2221 63.9289H23.8972C22.5377 63.9289 21.4359 65.0306 21.4359 66.3902V86.019C21.4359 87.3786 22.5377 88.4804 23.8972 88.4804H53.8348L56.6524 92.3203C57.5301 93.5168 59.0483 93.4059 59.7432 92.0948L62.1788 87.4969C62.491 87.0841 62.6834 86.5758 62.6834 86.0183V66.3902Z" fill="#116799"/>
<path d="M55.7879 72.7246H27.9884C27.5543 72.7246 27.2025 72.3727 27.2025 71.9387C27.2025 71.5046 27.5543 71.1527 27.9884 71.1527H55.7879C56.222 71.1527 56.5738 71.5046 56.5738 71.9387C56.5738 72.372 56.222 72.7246 55.7879 72.7246Z" fill="white"/>
<path d="M47.3389 76.4059H27.9884C27.5543 76.4059 27.2025 76.054 27.2025 75.6199C27.2025 75.1858 27.5543 74.834 27.9884 74.834H47.3389C47.773 74.834 48.1248 75.1858 48.1248 75.6199C48.1248 76.054 47.773 76.4059 47.3389 76.4059Z" fill="white"/>
<path d="M52.0331 80.165H27.9884C27.5543 80.165 27.2025 79.8132 27.2025 79.3791C27.2025 78.945 27.5543 78.5932 27.9884 78.5932H52.0331C52.4672 78.5932 52.819 78.945 52.819 79.3791C52.8198 79.8132 52.4672 80.165 52.0331 80.165Z" fill="white"/>
<g opacity="0.35">
<path d="M163.97 193.176C164.039 205.174 154.369 214.956 142.372 215.026C130.374 215.095 120.592 205.425 120.523 193.427C120.454 181.429 130.123 171.647 142.121 171.578C154.119 171.509 163.901 181.179 163.97 193.176Z" fill="#9FD9FB"/>
</g>
<path d="M162.325 192.982C162.995 180.881 153.729 170.528 141.628 169.858C129.527 169.188 119.174 178.454 118.504 190.555C117.834 202.655 127.1 213.008 139.201 213.679C151.302 214.349 161.655 205.082 162.325 192.982Z" fill="#B4E0F9"/>
<path d="M156.741 191.335C156.794 200.549 149.369 208.06 140.156 208.112C130.942 208.165 123.431 200.741 123.378 191.527C123.325 182.314 130.75 174.803 139.963 174.75C149.177 174.696 156.688 182.121 156.741 191.335Z" fill="#71B9E2"/>
<path d="M157.216 192.027C157.268 201.116 149.943 208.527 140.854 208.579C131.764 208.631 124.354 201.306 124.302 192.216C124.249 183.127 131.575 175.717 140.664 175.664C149.754 175.612 157.163 182.937 157.216 192.027Z" fill="#FF725E"/>
<path d="M157.216 192.027C157.268 201.116 149.943 208.527 140.854 208.579C131.764 208.631 124.354 201.306 124.302 192.216C124.249 183.127 131.575 175.717 140.664 175.664C149.754 175.612 157.163 182.937 157.216 192.027Z" fill="#8CCDF2"/>
<path d="M157.035 184.961C161.972 184.961 165.974 180.959 165.974 176.022C165.974 171.085 161.972 167.083 157.035 167.083C152.098 167.083 148.096 171.085 148.096 176.022C148.096 180.959 152.098 184.961 157.035 184.961Z" fill="#E4F5FF"/>
<path d="M154.014 175.832L155.214 178.522C155.335 178.795 155.696 178.854 155.898 178.635L160.381 173.763" stroke="#116799" stroke-width="1.0555" stroke-miterlimit="10" stroke-linecap="round"/>
<path d="M157.01 183.407C161.102 183.407 164.419 180.089 164.419 175.997C164.419 171.905 161.102 168.587 157.01 168.587C152.918 168.587 149.6 171.905 149.6 175.997C149.6 180.089 152.918 183.407 157.01 183.407Z" stroke="white" stroke-width="0.346383" stroke-miterlimit="10"/>
<g filter="url(#filter1_d_57_1287)">
<mask id="mask5_57_1287" style="mask-type:alpha" maskUnits="userSpaceOnUse" x="128" y="180" width="24" height="24">
<rect x="128" y="180" width="24" height="24" fill="#D9D9D9"/>
</mask>
<g mask="url(#mask5_57_1287)">
<path d="M141.725 201L135 194V192H138.5C139.383 192 140.146 191.712 140.787 191.137C141.429 190.562 141.817 189.85 141.95 189H134V187H141.65C141.367 186.417 140.946 185.938 140.388 185.562C139.829 185.188 139.2 185 138.5 185H134V183H146V185H142.75C142.983 185.283 143.192 185.592 143.375 185.925C143.558 186.258 143.7 186.617 143.8 187H146V189H143.975C143.842 190.417 143.258 191.604 142.225 192.562C141.192 193.521 139.95 194 138.5 194H137.775L144.5 201H141.725Z" fill="white"/>
</g>
</g>
<defs>
<filter id="filter0_d_57_1287" x="136.5" y="14.75" width="7.75" height="11.25" filterUnits="userSpaceOnUse" color-interpolation-filters="sRGB">
<feFlood flood-opacity="0" result="BackgroundImageFix"/>
<feColorMatrix in="SourceAlpha" type="matrix" values="0 0 0 0 0 0 0 0 0 0 0 0 0 0 0 0 0 0 127 0" result="hardAlpha"/>
<feOffset dx="0.75" dy="0.75"/>
<feComposite in2="hardAlpha" operator="out"/>
<feColorMatrix type="matrix" values="0 0 0 0 0.443137 0 0 0 0 0.717647 0 0 0 0 0.886275 0 0 0 1 0"/>
<feBlend mode="normal" in2="BackgroundImageFix" result="effect1_dropShadow_57_1287"/>
<feBlend mode="normal" in="SourceGraphic" in2="effect1_dropShadow_57_1287" result="shape"/>
</filter>
<filter id="filter1_d_57_1287" x="134" y="183" width="12.75" height="18.75" filterUnits="userSpaceOnUse" color-interpolation-filters="sRGB">
<feFlood flood-opacity="0" result="BackgroundImageFix"/>
<feColorMatrix in="SourceAlpha" type="matrix" values="0 0 0 0 0 0 0 0 0 0 0 0 0 0 0 0 0 0 127 0" result="hardAlpha"/>
<feOffset dx="0.75" dy="0.75"/>
<feComposite in2="hardAlpha" operator="out"/>
<feColorMatrix type="matrix" values="0 0 0 0 0.443137 0 0 0 0 0.717647 0 0 0 0 0.886275 0 0 0 1 0"/>
<feBlend mode="normal" in2="BackgroundImageFix" result="effect1_dropShadow_57_1287"/>
<feBlend mode="normal" in="SourceGraphic" in2="effect1_dropShadow_57_1287" result="shape"/>
</filter>
</defs>
</svg>
