<svg width="180" height="42" viewBox="0 0 180 42" fill="none" xmlns="http://www.w3.org/2000/svg">
<circle cx="20" cy="20.9999" r="20" fill="url(#paint0_linear_248_3221)"/>
<circle cx="20" cy="20.9999" r="20" fill="url(#paint1_linear_248_3221)"/>
<circle cx="20" cy="21.0001" r="20" transform="rotate(-180 20 21.0001)" fill="url(#paint2_linear_248_3221)"/>
<circle cx="20" cy="20.9999" r="20" fill="url(#paint3_radial_248_3221)"/>
<mask id="mask0_248_3221" style="mask-type:alpha" maskUnits="userSpaceOnUse" x="5" y="6" width="30" height="30">
<rect width="20" height="20" transform="matrix(0.707107 0.707107 0.707107 -0.707107 5.82397 20.9662)" fill="#D9D9D9"/>
</mask>
<g mask="url(#mask0_248_3221)">
<path d="M25.5651 15.3693C24.7908 14.595 23.9161 14.0142 22.941 13.6267C21.9659 13.2393 20.9745 13.0455 19.9669 13.0453C18.9593 13.0451 17.9679 13.2385 16.9929 13.6254C16.018 14.0125 15.1434 14.5931 14.3693 15.3673C13.595 16.1415 13.0141 17.0162 12.6267 17.9914C12.2392 18.9665 12.0454 19.9579 12.0452 20.9655C12.045 21.9731 12.2384 22.9644 12.6254 23.9395C13.0124 24.9144 13.593 25.7889 14.3672 26.5631C15.1415 27.3374 16.0162 27.9183 16.9913 28.3057C17.9664 28.6931 18.9578 28.8869 19.9654 28.8871C20.973 28.8873 21.9644 28.694 22.9394 28.307C23.9143 27.92 24.7889 27.3394 25.563 26.5652C26.3373 25.7909 26.9182 24.9162 27.3056 23.9411C27.6931 22.966 27.8869 21.9746 27.8871 20.967C27.8873 19.9593 27.6939 18.968 27.3069 17.993C26.9199 17.0181 26.3393 16.1435 25.5651 15.3693ZM20.4965 20.0234L22.6507 17.8692C22.7814 17.7385 22.9215 17.7211 23.0711 17.8171C23.2207 17.913 23.266 18.0464 23.2071 18.217L21.3338 23.0207C21.281 23.1491 21.1857 23.2302 21.0479 23.2639C20.9101 23.2976 20.7935 23.2667 20.6982 23.1714L19.5242 21.9974L17.3236 24.198C17.1929 24.3287 17.0513 24.3476 16.8986 24.2547C16.746 24.1618 16.6992 24.03 16.7581 23.8593L18.6188 18.9321C18.6777 18.7978 18.7728 18.7133 18.9039 18.6789C19.0349 18.6445 19.1488 18.6757 19.2455 18.7724L20.4965 20.0234Z" fill="white"/>
</g>
<path d="M35.9661 20.9662C35.9661 29.8028 28.8026 36.9662 19.9661 36.9662C11.1295 36.9662 3.96606 29.8028 3.96606 20.9662C3.96606 12.1297 11.1295 4.96621 19.9661 4.96621C28.8026 4.96621 35.9661 12.1297 35.9661 20.9662ZM7.16606 20.9662C7.16606 28.0355 12.8968 33.7662 19.9661 33.7662C27.0353 33.7662 32.7661 28.0355 32.7661 20.9662C32.7661 13.897 27.0353 8.16621 19.9661 8.16621C12.8968 8.16621 7.16606 13.897 7.16606 20.9662Z" fill="white" fill-opacity="0.85"/>
<path d="M55.2656 33.1719C55.2656 33.4844 55.2031 33.7031 55.0781 33.8281C54.9635 33.9427 54.7552 34 54.4531 34H51.3125C51.0208 34 50.8125 33.9427 50.6875 33.8281C50.5625 33.7031 50.5 33.4844 50.5 33.1719V13.375C50.5 12.7604 50.6198 12.3125 50.8594 12.0312C51.099 11.7396 51.5208 11.5938 52.125 11.5938H53.5781C54.1094 11.5938 54.6094 11.6667 55.0781 11.8125C55.5573 11.9479 56.0625 12.2604 56.5938 12.75C57.1354 13.2396 57.7604 14 58.4688 15.0312C59.1875 16.0521 60.0521 17.4479 61.0625 19.2188C62.0312 20.9062 62.8073 22.2552 63.3906 23.2656C63.9844 24.276 64.4427 25.0469 64.7656 25.5781C65.0885 26.1094 65.3281 26.4896 65.4844 26.7188C65.651 26.9479 65.7865 27.1354 65.8906 27.2812V14.0938C65.8906 13.7917 65.9375 13.5625 66.0312 13.4062C66.4792 12.7188 67.099 11.9948 67.8906 11.2344C68.0469 11.1094 68.1771 11.0469 68.2812 11.0469C68.3958 11.0469 68.5208 11.1094 68.6562 11.2344C69.0833 11.6302 69.4427 12.0104 69.7344 12.375C70.0365 12.7292 70.2969 13.0729 70.5156 13.4062C70.6094 13.5729 70.6562 13.8021 70.6562 14.0938V32.7031C70.6562 33.1719 70.5677 33.5052 70.3906 33.7031C70.2135 33.901 69.8906 34 69.4219 34H67.9219C67.474 34 67.0156 33.9271 66.5469 33.7812C66.0781 33.625 65.5469 33.2812 64.9531 32.75C64.3594 32.2083 63.6562 31.3698 62.8438 30.2344C62.0312 29.099 61.0521 27.5469 59.9062 25.5781C58.9375 23.901 58.1615 22.5677 57.5781 21.5781C57.0052 20.5885 56.5677 19.8438 56.2656 19.3438C55.9635 18.8333 55.7448 18.4792 55.6094 18.2812C55.474 18.0729 55.3594 17.9167 55.2656 17.8125V33.1719ZM80.7031 33.1719C80.7031 33.4844 80.6354 33.7031 80.5 33.8281C80.375 33.9427 80.1562 34 79.8438 34H76.5156C76.2031 34 75.9792 33.9427 75.8438 33.8281C75.7188 33.7031 75.6562 33.4844 75.6562 33.1719V15.7812C75.6562 14.7396 75.75 13.9167 75.9375 13.3125C76.1354 12.6979 76.5104 12.2604 77.0625 12C77.625 11.7292 78.4427 11.5938 79.5156 11.5938H83.6562C89.0938 11.5938 91.8125 13.6823 91.8125 17.8594C91.8125 19.1302 91.599 20.1719 91.1719 20.9844C90.7448 21.7969 90.2135 22.4323 89.5781 22.8906C88.9427 23.3385 88.3177 23.6771 87.7031 23.9062V23.9844C88.401 24.4427 89.0625 25.0469 89.6875 25.7969C90.3229 26.5365 90.8958 27.3438 91.4062 28.2188C91.9167 29.0833 92.349 29.9427 92.7031 30.7969C93.0573 31.6406 93.3021 32.3958 93.4375 33.0625C93.5 33.375 93.5 33.6094 93.4375 33.7656C93.3854 33.9219 93.2083 34 92.9062 34H89.2969C89.026 34 88.7865 33.9427 88.5781 33.8281C88.3802 33.7135 88.1979 33.4479 88.0312 33.0312C87.2396 31.0417 86.3281 29.4219 85.2969 28.1719C84.2656 26.9115 83.2708 25.901 82.3125 25.1406C81.6979 24.651 81.3906 24.3021 81.3906 24.0938C81.3906 23.9271 81.4896 23.6979 81.6875 23.4062C81.8125 23.2292 81.9948 23.0156 82.2344 22.7656C82.474 22.5156 82.6823 22.3281 82.8594 22.2031C83.0365 22.0781 83.1771 22 83.2812 21.9688C83.3958 21.9375 83.5677 21.9219 83.7969 21.9219C84.5677 21.9219 85.2083 21.6562 85.7188 21.125C86.2396 20.5938 86.5 19.7552 86.5 18.6094C86.5 17.526 86.224 16.7344 85.6719 16.2344C85.1302 15.724 84.3802 15.4688 83.4219 15.4688H82.4844C81.7969 15.4688 81.3281 15.6146 81.0781 15.9062C80.8281 16.1979 80.7031 16.6979 80.7031 17.4062V33.1719ZM114.781 30.1719C115.542 30.1719 116.135 30.0938 116.562 29.9375C117 29.7812 117.339 29.5885 117.578 29.3594C117.818 29.1302 118.026 28.901 118.203 28.6719C118.37 28.4635 118.505 28.3073 118.609 28.2031C118.724 28.099 118.88 28.026 119.078 27.9844C119.245 27.9323 119.51 27.901 119.875 27.8906C120.25 27.8698 120.62 27.8594 120.984 27.8594C121.359 27.8594 121.62 27.8698 121.766 27.8906C121.984 27.901 122.135 27.9427 122.219 28.0156C122.302 28.0885 122.354 28.2448 122.375 28.4844C122.406 28.8177 122.422 29.2135 122.422 29.6719C122.432 30.1302 122.427 30.526 122.406 30.8594C122.396 30.9635 122.375 31.0521 122.344 31.125C122.323 31.1979 122.271 31.3073 122.188 31.4531C122.083 31.6198 121.88 31.8646 121.578 32.1875C121.276 32.5 120.833 32.8281 120.25 33.1719C119.667 33.5052 118.911 33.7917 117.984 34.0312C117.068 34.2708 115.938 34.3906 114.594 34.3906C113.156 34.3906 111.812 34.2083 110.562 33.8438C109.312 33.4688 108.214 32.8438 107.266 31.9688C106.328 31.0938 105.594 29.9115 105.062 28.4219C104.542 26.9323 104.281 25.0729 104.281 22.8438C104.281 20.3646 104.708 18.2604 105.562 16.5312C106.427 14.7917 107.651 13.4688 109.234 12.5625C110.818 11.6562 112.693 11.2031 114.859 11.2031C116.38 11.2031 117.599 11.3594 118.516 11.6719C119.443 11.9844 120.146 12.3542 120.625 12.7812C121.104 13.1979 121.443 13.5625 121.641 13.875C121.714 13.9896 121.766 14.0938 121.797 14.1875C121.828 14.2708 121.849 14.4062 121.859 14.5938C121.891 14.8438 121.896 15.2083 121.875 15.6875C121.865 16.1667 121.828 16.5885 121.766 16.9531C121.724 17.1823 121.656 17.3333 121.562 17.4062C121.521 17.4479 121.448 17.4844 121.344 17.5156C121.24 17.5469 121.083 17.5625 120.875 17.5625C120.542 17.5625 120.167 17.5521 119.75 17.5312C119.333 17.5 119.021 17.4688 118.812 17.4375C118.562 17.3958 118.38 17.3385 118.266 17.2656C118.151 17.1823 118.036 17.0573 117.922 16.8906C117.734 16.6198 117.411 16.3073 116.953 15.9531C116.495 15.599 115.74 15.4219 114.688 15.4219C113.208 15.4219 111.99 15.9948 111.031 17.1406C110.073 18.276 109.594 20.1198 109.594 22.6719C109.594 25.2135 110.094 27.099 111.094 28.3281C112.104 29.5573 113.333 30.1719 114.781 30.1719ZM130.422 33.1719C130.422 33.4844 130.354 33.7031 130.219 33.8281C130.094 33.9427 129.875 34 129.562 34H126.344C126.031 34 125.807 33.9427 125.672 33.8281C125.547 33.7031 125.484 33.4844 125.484 33.1719V12.0312C125.484 11.7812 125.536 11.5885 125.641 11.4531C126.078 10.8802 126.719 10.2604 127.562 9.59375C127.708 9.48958 127.839 9.4375 127.953 9.4375C128.089 9.4375 128.219 9.48958 128.344 9.59375C128.792 9.9375 129.167 10.2604 129.469 10.5625C129.781 10.8646 130.047 11.1615 130.266 11.4531C130.37 11.5885 130.422 11.7812 130.422 12.0312V19.6094H130.484C130.714 19.3073 131.01 19.0052 131.375 18.7031C131.74 18.3906 132.224 18.1302 132.828 17.9219C133.443 17.7135 134.224 17.6094 135.172 17.6094C136.13 17.6094 137.052 17.8073 137.938 18.2031C138.823 18.599 139.547 19.2656 140.109 20.2031C140.672 21.1406 140.953 22.4219 140.953 24.0469V33.1719C140.953 33.4844 140.885 33.7031 140.75 33.8281C140.625 33.9427 140.406 34 140.094 34H136.875C136.562 34 136.339 33.9427 136.203 33.8281C136.078 33.7031 136.016 33.4844 136.016 33.1719V24.9062C136.016 23.75 135.776 22.9115 135.297 22.3906C134.818 21.8594 134.167 21.5938 133.344 21.5938C132.531 21.5938 131.901 21.7708 131.453 22.125C131.005 22.4792 130.661 22.9271 130.422 23.4688V33.1719ZM144.453 12.75C144.453 12.6146 144.495 12.4948 144.578 12.3906C144.661 12.2865 144.771 12.151 144.906 11.9844C145.198 11.651 145.536 11.3021 145.922 10.9375C146.307 10.5625 146.698 10.2031 147.094 9.85938C147.344 9.66146 147.531 9.5625 147.656 9.5625C147.781 9.5625 147.974 9.66146 148.234 9.85938C149.078 10.5885 149.797 11.2969 150.391 11.9844C150.526 12.1406 150.635 12.276 150.719 12.3906C150.812 12.4948 150.859 12.6146 150.859 12.75C150.859 12.8854 150.812 13.0052 150.719 13.1094C150.635 13.2135 150.521 13.3542 150.375 13.5312C150.094 13.8542 149.766 14.2031 149.391 14.5781C149.016 14.9427 148.63 15.2917 148.234 15.625C148.089 15.75 147.974 15.8333 147.891 15.875C147.807 15.9062 147.729 15.9219 147.656 15.9219C147.583 15.9219 147.505 15.9062 147.422 15.875C147.349 15.8333 147.229 15.75 147.062 15.625C146.646 15.2917 146.255 14.9427 145.891 14.5781C145.526 14.2031 145.198 13.8438 144.906 13.5C144.771 13.3333 144.661 13.2031 144.578 13.1094C144.495 13.0052 144.453 12.8854 144.453 12.75ZM150.109 33.1719C150.109 33.4844 150.042 33.7031 149.906 33.8281C149.781 33.9427 149.562 34 149.25 34H146.031C145.719 34 145.495 33.9427 145.359 33.8281C145.234 33.7031 145.172 33.4844 145.172 33.1719V18.8281C145.172 18.5156 145.234 18.3021 145.359 18.1875C145.495 18.0625 145.719 18 146.031 18H149.25C149.562 18 149.781 18.0625 149.906 18.1875C150.042 18.3021 150.109 18.5156 150.109 18.8281V33.1719ZM160.688 34.3906C157.208 34.3906 155.469 32.5833 155.469 28.9688V21.6406H153.703C153.391 21.6406 153.172 21.5781 153.047 21.4531C152.932 21.3177 152.875 21.0938 152.875 20.7812V18.8594C152.875 18.5469 152.932 18.3281 153.047 18.2031C153.172 18.0677 153.391 18 153.703 18H155.469V15.4844C155.469 15.2344 155.521 15.0417 155.625 14.9062C156.062 14.3333 156.703 13.7135 157.547 13.0469C157.693 12.9427 157.823 12.8906 157.938 12.8906C158.062 12.8906 158.188 12.9427 158.312 13.0469C158.76 13.3906 159.135 13.7135 159.438 14.0156C159.75 14.3177 160.016 14.6146 160.234 14.9062C160.339 15.0417 160.391 15.2344 160.391 15.4844V18H163.156C163.469 18 163.682 18.0677 163.797 18.2031C163.922 18.3281 163.984 18.5469 163.984 18.8594V20.7812C163.984 21.0938 163.922 21.3177 163.797 21.4531C163.682 21.5781 163.469 21.6406 163.156 21.6406H160.391V28.1094C160.391 29.776 160.995 30.6094 162.203 30.6094C162.391 30.6094 162.562 30.5938 162.719 30.5625C162.875 30.5208 163.01 30.4792 163.125 30.4375C163.344 30.3542 163.495 30.3229 163.578 30.3438C163.672 30.3646 163.755 30.4792 163.828 30.6875L164.734 33.1094C164.828 33.3698 164.766 33.5573 164.547 33.6719C164.391 33.7448 164.01 33.8802 163.406 34.0781C162.812 34.2865 161.906 34.3906 160.688 34.3906ZM171.812 34.3906C170.698 34.3906 169.771 34.2969 169.031 34.1094C168.302 33.9219 167.714 33.6979 167.266 33.4375C166.828 33.1667 166.484 32.9219 166.234 32.7031C166.047 32.526 166.026 32.3281 166.172 32.1094L167.766 29.75C167.995 29.4167 168.255 29.3958 168.547 29.6875C168.849 29.9792 169.255 30.2656 169.766 30.5469C170.286 30.8177 170.932 30.9531 171.703 30.9531C172.391 30.9531 172.953 30.8385 173.391 30.6094C173.839 30.3698 174.062 30.026 174.062 29.5781C174.062 29.2656 173.964 29.0104 173.766 28.8125C173.568 28.6146 173.219 28.4115 172.719 28.2031C172.219 27.9948 171.521 27.7292 170.625 27.4062C169.302 26.9271 168.302 26.349 167.625 25.6719C166.948 24.9948 166.609 24.0052 166.609 22.7031C166.609 21.5052 166.938 20.5312 167.594 19.7812C168.26 19.0312 169.109 18.4844 170.141 18.1406C171.182 17.7865 172.266 17.6094 173.391 17.6094C174.818 17.6094 175.818 17.7448 176.391 18.0156C176.974 18.276 177.349 18.4792 177.516 18.625C177.672 18.7604 177.781 18.9167 177.844 19.0938C177.979 19.5 178.083 20.0365 178.156 20.7031C178.198 21.0885 178.099 21.3438 177.859 21.4688C177.734 21.5417 177.536 21.6198 177.266 21.7031C176.995 21.7865 176.724 21.8594 176.453 21.9219C176.182 21.9844 175.979 22.0156 175.844 22.0156C175.802 22.0156 175.755 22.0052 175.703 21.9844C175.661 21.9531 175.583 21.8854 175.469 21.7812C175.333 21.6458 175.099 21.4896 174.766 21.3125C174.443 21.1354 173.995 21.0469 173.422 21.0469C172.859 21.0469 172.385 21.1406 172 21.3281C171.625 21.5052 171.438 21.8229 171.438 22.2812C171.438 22.7812 171.677 23.1562 172.156 23.4062C172.646 23.6562 173.448 23.9792 174.562 24.375C175.438 24.6771 176.198 25.0104 176.844 25.375C177.5 25.7292 178.005 26.1979 178.359 26.7812C178.714 27.3542 178.891 28.1302 178.891 29.1094C178.891 30.3802 178.542 31.4062 177.844 32.1875C177.156 32.9583 176.271 33.5208 175.188 33.875C174.115 34.2188 172.99 34.3906 171.812 34.3906Z" fill="#566579"/>
<defs>
<linearGradient id="paint0_linear_248_3221" x1="7.4" y1="6.39991" x2="32.4" y2="36.9999" gradientUnits="userSpaceOnUse">
<stop stop-color="#FE3967"/>
<stop offset="1" stop-color="#ADD1E2"/>
</linearGradient>
<linearGradient id="paint1_linear_248_3221" x1="33.8" y1="6.59991" x2="20" y2="15.9999" gradientUnits="userSpaceOnUse">
<stop stop-color="#E098FE"/>
<stop offset="1" stop-color="#E098FE" stop-opacity="0"/>
</linearGradient>
<linearGradient id="paint2_linear_248_3221" x1="26.0908" y1="1.19686" x2="17.1275" y2="22.5097" gradientUnits="userSpaceOnUse">
<stop stop-color="#FEAD2B"/>
<stop offset="1" stop-color="#FEAD2A" stop-opacity="0"/>
</linearGradient>
<radialGradient id="paint3_radial_248_3221" cx="0" cy="0" r="1" gradientUnits="userSpaceOnUse" gradientTransform="translate(39.0065 24.8684) rotate(-167.778) scale(29.4157)">
<stop stop-color="#33C1FD"/>
<stop offset="1" stop-color="#E098FE" stop-opacity="0"/>
</radialGradient>
</defs>
</svg>
