<svg width="96" height="40" viewBox="0 0 96 40" fill="none" xmlns="http://www.w3.org/2000/svg">
<rect x="0.5" y="6" width="28" height="28" rx="14" fill="white"/>
<mask id="mask0_62_2808" style="mask-type:alpha" maskUnits="userSpaceOnUse" x="0" y="6" width="29" height="28">
<rect x="0.5" y="6" width="28" height="28" fill="#D9D9D9"/>
</mask>
<g mask="url(#mask0_62_2808)">
<path d="M17.8103 27.6661C18.0237 27.4676 18.1404 27.2267 18.1603 26.9433C18.1799 26.6598 18.083 26.4114 17.8696 26.1979L13.4968 21.5474L13.5336 21.4368H13.9021C15.2851 21.4368 16.4221 21.0505 17.3129 20.2778C18.2035 19.5051 18.7282 18.5406 18.8872 17.3842H19.6126C19.8211 17.3842 19.9933 17.3119 20.1291 17.1672C20.2647 17.0225 20.3325 16.8468 20.3325 16.64C20.3325 16.4334 20.2647 16.2621 20.1291 16.1261C19.9933 15.99 19.8211 15.9219 19.6126 15.9219H18.8503C18.7766 15.4779 18.6311 15.0665 18.4137 14.6877C18.1964 14.3088 17.9244 13.9596 17.5977 13.6403H19.6126C19.8211 13.6403 19.9933 13.568 20.1291 13.4233C20.2647 13.2786 20.3325 13.103 20.3325 12.8965C20.3325 12.6897 20.2647 12.5182 20.1291 12.3822C19.9933 12.2461 19.8211 12.1781 19.6126 12.1781H9.52337C9.28733 12.1781 9.08568 12.2619 8.91842 12.4297C8.75116 12.5972 8.66753 12.7993 8.66753 13.0361C8.66753 13.2729 8.75116 13.4706 8.91842 13.6293C9.08568 13.7879 9.28733 13.8673 9.52337 13.8673H13.8906C14.6899 13.8673 15.3464 14.0553 15.8602 14.4313C16.3743 14.8071 16.705 15.304 16.8524 15.9219H9.38742C9.17889 15.9219 9.00672 15.9943 8.87089 16.1389C8.73532 16.2836 8.66753 16.4594 8.66753 16.6662C8.66753 16.8727 8.73532 17.044 8.87089 17.1801C9.00672 17.3162 9.17889 17.3842 9.38742 17.3842H16.8892C16.7608 18.055 16.4334 18.6015 15.907 19.0237C15.3809 19.4459 14.6861 19.657 13.8225 19.657H12.0544C11.7619 19.657 11.5088 19.726 11.2951 19.8641C11.0814 20.0018 10.9226 20.1917 10.8187 20.4336C10.7148 20.6756 10.6827 20.9212 10.7222 21.1705C10.762 21.4198 10.883 21.6578 11.0851 21.8845L16.3565 27.6293C16.5547 27.8427 16.7932 27.9518 17.0719 27.9564C17.3505 27.9611 17.5966 27.8643 17.8103 27.6661ZM14.5026 34C12.5662 34 10.746 33.6326 9.04221 32.8977C7.33839 32.1628 5.85635 31.1655 4.59611 29.9057C3.33586 28.646 2.33805 27.1646 1.60268 25.4615C0.867561 23.7584 0.5 21.9388 0.5 20.0026C0.5 18.0662 0.867439 16.246 1.60232 14.5422C2.33719 12.8384 3.33451 11.3564 4.59426 10.0961C5.85402 8.83586 7.33544 7.83805 9.03853 7.10268C10.7416 6.36756 12.5612 6 14.4974 6C16.4338 6 18.254 6.36744 19.9578 7.10232C21.6616 7.83719 23.1437 8.83451 24.4039 10.0943C25.6641 11.354 26.6619 12.8354 27.3973 14.5385C28.1324 16.2416 28.5 18.0612 28.5 19.9974C28.5 21.9338 28.1326 23.754 27.3977 25.4578C26.6628 27.1616 25.6655 28.6437 24.4057 29.9039C23.146 31.1641 21.6646 32.1619 19.9615 32.8973C18.2584 33.6324 16.4388 34 14.5026 34Z" fill="#6366F1"/>
</g>
<path d="M55.06 26.56C54.8253 27.52 54.4413 28.3733 53.908 29.12C53.396 29.8453 52.7667 30.464 52.02 30.976C51.2947 31.488 50.4733 31.872 49.556 32.128C48.66 32.384 47.7107 32.512 46.708 32.512C43.956 32.512 41.812 31.5413 40.276 29.6C38.7613 27.6587 38.004 24.7253 38.004 20.8C38.004 19.3493 38.132 17.8667 38.388 16.352C38.644 14.8373 39.092 13.4613 39.732 12.224C40.372 10.9867 41.2253 9.97333 42.292 9.184C43.38 8.39466 44.7453 8 46.388 8C47.1773 8 47.9453 8.10667 48.692 8.32C49.4387 8.512 50.0893 8.82133 50.644 9.248C51.22 9.65333 51.6787 10.176 52.02 10.816C52.3613 11.456 52.532 12.2027 52.532 13.056C52.532 13.696 52.404 14.2187 52.148 14.624C51.9133 15.0293 51.4653 15.232 50.804 15.232C50.548 15.232 50.2387 15.1893 49.876 15.104C49.5347 14.9973 49.172 14.7627 48.788 14.4C49.0653 14.2293 49.2893 13.92 49.46 13.472C49.6307 13.0027 49.716 12.544 49.716 12.096C49.716 11.4133 49.5133 10.816 49.108 10.304C48.7027 9.77067 48.1587 9.504 47.476 9.504C46.7507 9.504 46.1213 9.81333 45.588 10.432C45.0547 11.0507 44.6067 11.872 44.244 12.896C43.9027 13.8987 43.6467 15.0507 43.476 16.352C43.3053 17.632 43.22 18.944 43.22 20.288C43.22 22.0587 43.3587 23.5413 43.636 24.736C43.9347 25.9307 44.3293 26.8907 44.82 27.616C45.3107 28.3413 45.8867 28.8533 46.548 29.152C47.2307 29.4507 47.956 29.6 48.724 29.6C49.94 29.6 51.028 29.3013 51.988 28.704C52.9693 28.0853 53.7267 27.264 54.26 26.24L55.06 26.56ZM62.2883 22.304C62.2883 21.024 62.1496 20.1173 61.8723 19.584C61.5949 19.0507 61.1896 18.784 60.6562 18.784C60.3363 18.784 60.0589 18.8693 59.8243 19.04C59.6109 19.2107 59.4296 19.4347 59.2803 19.712C59.1309 19.9893 59.0136 20.3093 58.9283 20.672C58.8429 21.0133 58.7896 21.3653 58.7683 21.728V32H54.1603V10.24L58.7683 9.6V17.664C59.2589 16.9173 59.8136 16.4373 60.4323 16.224C61.0509 15.9893 61.6376 15.872 62.1923 15.872C62.7896 15.872 63.3549 15.968 63.8883 16.16C64.4429 16.352 64.9229 16.6827 65.3283 17.152C65.7549 17.6 66.0856 18.208 66.3203 18.976C66.5549 19.7227 66.6723 20.6507 66.6723 21.76C66.6723 22.0373 66.6616 22.3893 66.6403 22.816C66.6403 23.2213 66.6296 23.6373 66.6083 24.064C66.5869 24.4907 66.5656 24.9067 66.5443 25.312C66.5443 25.7173 66.5443 26.0587 66.5443 26.336C66.5443 27.2533 66.6509 27.9467 66.8643 28.416C67.0989 28.864 67.5469 29.088 68.2083 29.088C68.5709 29.088 68.8696 29.024 69.1042 28.896C69.3389 28.7467 69.5309 28.544 69.6803 28.288C69.8296 28.032 69.9469 27.7333 70.0323 27.392C70.1389 27.0507 70.2349 26.6773 70.3203 26.272H71.6643C71.4936 27.552 71.2376 28.5867 70.8963 29.376C70.5549 30.144 70.1603 30.7413 69.7123 31.168C69.2856 31.5733 68.8269 31.8507 68.3363 32C67.8456 32.128 67.3656 32.192 66.8963 32.192C65.2536 32.192 64.0589 31.648 63.3123 30.56C62.5869 29.472 62.2243 28.0213 62.2243 26.208C62.2243 26.016 62.2243 25.7493 62.2243 25.408C62.2456 25.0453 62.2563 24.672 62.2563 24.288C62.2563 23.904 62.2563 23.5307 62.2563 23.168C62.2776 22.8053 62.2883 22.5173 62.2883 22.304ZM74.9245 16V26.88C74.9245 27.776 75.0418 28.3733 75.2765 28.672C75.5325 28.9493 75.9698 29.088 76.5885 29.088C77.2072 29.088 77.7192 28.8213 78.1245 28.288C78.5512 27.7547 78.7965 27.0827 78.8605 26.272H80.2045C80.0338 27.5733 79.7352 28.6187 79.3085 29.408C78.8818 30.176 78.4018 30.7733 77.8685 31.2C77.3352 31.6053 76.7912 31.872 76.2365 32C75.6818 32.128 75.1912 32.192 74.7645 32.192C73.1218 32.192 71.9698 31.744 71.3085 30.848C70.6472 29.9307 70.3165 28.7253 70.3165 27.232V16H74.9245ZM69.9645 11.744C69.9645 11.04 70.2098 10.4427 70.7005 9.952C71.1912 9.44 71.7885 9.184 72.4925 9.184C73.1965 9.184 73.7938 9.44 74.2845 9.952C74.7965 10.4427 75.0525 11.04 75.0525 11.744C75.0525 12.448 74.7965 13.0453 74.2845 13.536C73.7938 14.0267 73.1965 14.272 72.4925 14.272C71.7885 14.272 71.1912 14.0267 70.7005 13.536C70.2098 13.0453 69.9645 12.448 69.9645 11.744ZM83.4558 10.944V16H85.4078V17.28H83.4558V26.88C83.4558 27.776 83.5731 28.3733 83.8078 28.672C84.0638 28.9493 84.5011 29.088 85.1198 29.088C85.7384 29.088 86.2504 28.8213 86.6558 28.288C87.0824 27.7547 87.3278 27.0827 87.3918 26.272H88.7358C88.5651 27.5733 88.2664 28.6187 87.8398 29.408C87.4131 30.176 86.9331 30.7733 86.3998 31.2C85.8664 31.6053 85.3224 31.872 84.7678 32C84.2131 32.128 83.7224 32.192 83.2958 32.192C81.6531 32.192 80.5011 31.744 79.8398 30.848C79.1784 29.9307 78.8478 28.7253 78.8478 27.232V17.28H77.8238V16H78.8478V11.584L83.4558 10.944ZM87.027 11.744C87.027 11.04 87.2723 10.4427 87.763 9.952C88.2537 9.44 88.851 9.184 89.555 9.184C90.259 9.184 90.8563 9.44 91.347 9.952C91.859 10.4427 92.115 11.04 92.115 11.744C92.115 12.448 91.859 13.0453 91.347 13.536C90.8563 14.0267 90.259 14.272 89.555 14.272C88.851 14.272 88.2537 14.0267 87.763 13.536C87.2723 13.0453 87.027 12.448 87.027 11.744ZM91.987 16V26.88C91.987 27.776 92.1043 28.3733 92.339 28.672C92.595 28.9493 93.0323 29.088 93.651 29.088C93.9283 29.088 94.131 29.0667 94.259 29.024C94.4083 28.9813 94.5363 28.9387 94.643 28.896C94.6643 29.0027 94.675 29.1093 94.675 29.216C94.675 29.3227 94.675 29.4293 94.675 29.536C94.675 30.0693 94.579 30.5067 94.387 30.848C94.2163 31.1893 93.9817 31.4667 93.683 31.68C93.4057 31.872 93.0963 32 92.755 32.064C92.435 32.1493 92.1257 32.192 91.827 32.192C90.1843 32.192 89.0323 31.744 88.371 30.848C87.7097 29.9307 87.379 28.7253 87.379 27.232V16H91.987Z" fill="#334155"/>
</svg>
