<svg width="198" height="124" viewBox="0 0 198 124" fill="none" xmlns="http://www.w3.org/2000/svg">
<g filter="url(#filter0_dd_248_3200)">
<circle cx="99" cy="24.4999" r="24" fill="url(#paint0_linear_248_3200)"/>
<circle cx="99" cy="24.4999" r="24" fill="url(#paint1_linear_248_3200)"/>
<circle cx="99" cy="24.5001" r="24" transform="rotate(-180 99 24.5001)" fill="url(#paint2_linear_248_3200)"/>
<circle cx="99" cy="24.4999" r="24" fill="url(#paint3_radial_248_3200)"/>
<mask id="mask0_248_3200" style="mask-type:alpha" maskUnits="userSpaceOnUse" x="81" y="7" width="35" height="35">
<rect width="24" height="24" transform="matrix(0.707107 0.707107 0.707107 -0.707107 81.9888 24.4594)" fill="#D9D9D9"/>
</mask>
<g mask="url(#mask0_248_3200)">
<path d="M105.678 17.7432C104.749 16.814 103.699 16.117 102.529 15.6521C101.359 15.1872 100.169 14.9546 98.9602 14.9543C97.7511 14.9541 96.5615 15.1861 95.3915 15.6505C94.2215 16.1149 93.1721 16.8117 92.2431 17.7407C91.3139 18.6698 90.6169 19.7195 90.152 20.8896C89.687 22.0598 89.4545 23.2494 89.4542 24.4586C89.454 25.6677 89.686 26.8573 90.1504 28.0273C90.6148 29.1972 91.3116 30.2467 92.2406 31.1757C93.1697 32.1049 94.2194 32.8019 95.3895 33.2668C96.5597 33.7317 97.7493 33.9643 98.9585 33.9645C100.168 33.9648 101.357 33.7327 102.527 33.2684C103.697 32.804 104.747 32.1072 105.676 31.1782C106.605 30.2491 107.302 29.1994 107.767 28.0293C108.232 26.8591 108.464 25.6695 108.464 24.4603C108.465 23.2512 108.233 22.0616 107.768 20.8916C107.304 19.7217 106.607 18.6722 105.678 17.7432ZM99.5957 23.3281L102.181 20.7431C102.338 20.5862 102.506 20.5653 102.685 20.6805C102.865 20.7956 102.919 20.9556 102.848 21.1604L100.601 26.9248C100.537 27.0789 100.423 27.1762 100.257 27.2166C100.092 27.2571 99.9522 27.22 99.8377 27.1056L98.429 25.6969L95.7883 28.3376C95.6315 28.4944 95.4615 28.5171 95.2783 28.4056C95.0952 28.2941 95.039 28.136 95.1097 27.9312L97.3425 22.0185C97.4132 21.8573 97.5273 21.756 97.6846 21.7146C97.8418 21.6734 97.9785 21.7108 98.0945 21.8269L99.5957 23.3281Z" fill="white"/>
</g>
<path d="M118.159 24.4594C118.159 35.0633 109.563 43.6594 98.9593 43.6594C88.3555 43.6594 79.7593 35.0633 79.7593 24.4594C79.7593 13.8556 88.3555 5.25945 98.9593 5.25945C109.563 5.25945 118.159 13.8556 118.159 24.4594ZM83.5993 24.4594C83.5993 32.9425 90.4762 39.8194 98.9593 39.8194C107.442 39.8194 114.319 32.9425 114.319 24.4594C114.319 15.9764 107.442 9.09944 98.9593 9.09944C90.4762 9.09944 83.5993 15.9764 83.5993 24.4594Z" fill="white" fill-opacity="0.85"/>
</g>
<path d="M10.8984 109.258C10.8984 109.727 10.8047 110.055 10.6172 110.242C10.4453 110.414 10.1328 110.5 9.67969 110.5H4.96875C4.53125 110.5 4.21875 110.414 4.03125 110.242C3.84375 110.055 3.75 109.727 3.75 109.258V79.5626C3.75 78.6407 3.92969 77.9689 4.28906 77.547C4.64844 77.1095 5.28125 76.8907 6.1875 76.8907H8.36719C9.16406 76.8907 9.91406 77.0001 10.6172 77.2189C11.3359 77.422 12.0938 77.8907 12.8906 78.6251C13.7031 79.3595 14.6406 80.5001 15.7031 82.047C16.7812 83.5782 18.0781 85.672 19.5938 88.3282C21.0469 90.8595 22.2109 92.8829 23.0859 94.3985C23.9766 95.9142 24.6641 97.0704 25.1484 97.8673C25.6328 98.6642 25.9922 99.2345 26.2266 99.5782C26.4766 99.922 26.6797 100.203 26.8359 100.422V80.6407C26.8359 80.1876 26.9062 79.8439 27.0469 79.6095C27.7188 78.5782 28.6484 77.4923 29.8359 76.3517C30.0703 76.1642 30.2656 76.0704 30.4219 76.0704C30.5938 76.0704 30.7812 76.1642 30.9844 76.3517C31.625 76.9454 32.1641 77.5157 32.6016 78.0626C33.0547 78.5939 33.4453 79.1095 33.7734 79.6095C33.9141 79.8595 33.9844 80.2032 33.9844 80.6407V108.555C33.9844 109.258 33.8516 109.758 33.5859 110.055C33.3203 110.352 32.8359 110.5 32.1328 110.5H29.8828C29.2109 110.5 28.5234 110.391 27.8203 110.172C27.1172 109.938 26.3203 109.422 25.4297 108.625C24.5391 107.813 23.4844 106.555 22.2656 104.852C21.0469 103.149 19.5781 100.82 17.8594 97.8673C16.4062 95.3517 15.2422 93.3517 14.3672 91.8673C13.5078 90.3829 12.8516 89.2657 12.3984 88.5157C11.9453 87.7501 11.6172 87.2189 11.4141 86.922C11.2109 86.6095 11.0391 86.3751 10.8984 86.2189V109.258ZM49.0547 109.258C49.0547 109.727 48.9531 110.055 48.75 110.242C48.5625 110.414 48.2344 110.5 47.7656 110.5H42.7734C42.3047 110.5 41.9688 110.414 41.7656 110.242C41.5781 110.055 41.4844 109.727 41.4844 109.258V83.172C41.4844 81.6095 41.625 80.3751 41.9062 79.4689C42.2031 78.547 42.7656 77.8907 43.5938 77.5001C44.4375 77.0939 45.6641 76.8907 47.2734 76.8907H53.4844C61.6406 76.8907 65.7188 80.0235 65.7188 86.2892C65.7188 88.1954 65.3984 89.7579 64.7578 90.9767C64.1172 92.1954 63.3203 93.1485 62.3672 93.836C61.4141 94.5079 60.4766 95.0157 59.5547 95.3595V95.4767C60.6016 96.1642 61.5938 97.0704 62.5312 98.1954C63.4844 99.3048 64.3438 100.516 65.1094 101.828C65.875 103.125 66.5234 104.414 67.0547 105.695C67.5859 106.961 67.9531 108.094 68.1562 109.094C68.25 109.563 68.25 109.914 68.1562 110.149C68.0781 110.383 67.8125 110.5 67.3594 110.5H61.9453C61.5391 110.5 61.1797 110.414 60.8672 110.242C60.5703 110.07 60.2969 109.672 60.0469 109.047C58.8594 106.063 57.4922 103.633 55.9453 101.758C54.3984 99.8673 52.9062 98.3517 51.4688 97.211C50.5469 96.4767 50.0859 95.9532 50.0859 95.6407C50.0859 95.3907 50.2344 95.047 50.5312 94.6095C50.7188 94.3439 50.9922 94.0235 51.3516 93.6485C51.7109 93.2735 52.0234 92.9923 52.2891 92.8048C52.5547 92.6173 52.7656 92.5001 52.9219 92.4532C53.0938 92.4064 53.3516 92.3829 53.6953 92.3829C54.8516 92.3829 55.8125 91.9845 56.5781 91.1876C57.3594 90.3907 57.75 89.1329 57.75 87.4142C57.75 85.7892 57.3359 84.6017 56.5078 83.8517C55.6953 83.086 54.5703 82.7032 53.1328 82.7032H51.7266C50.6953 82.7032 49.9922 82.922 49.6172 83.3595C49.2422 83.797 49.0547 84.547 49.0547 85.6095V109.258ZM100.172 104.758C101.312 104.758 102.203 104.641 102.844 104.406C103.5 104.172 104.008 103.883 104.367 103.539C104.727 103.195 105.039 102.852 105.305 102.508C105.555 102.195 105.758 101.961 105.914 101.805C106.086 101.649 106.32 101.539 106.617 101.477C106.867 101.399 107.266 101.352 107.812 101.336C108.375 101.305 108.93 101.289 109.477 101.289C110.039 101.289 110.43 101.305 110.648 101.336C110.977 101.352 111.203 101.414 111.328 101.524C111.453 101.633 111.531 101.867 111.562 102.227C111.609 102.727 111.633 103.32 111.633 104.008C111.648 104.695 111.641 105.289 111.609 105.789C111.594 105.945 111.562 106.078 111.516 106.188C111.484 106.297 111.406 106.461 111.281 106.68C111.125 106.93 110.82 107.297 110.367 107.781C109.914 108.25 109.25 108.742 108.375 109.258C107.5 109.758 106.367 110.188 104.977 110.547C103.602 110.906 101.906 111.086 99.8906 111.086C97.7344 111.086 95.7188 110.813 93.8438 110.266C91.9688 109.703 90.3203 108.766 88.8984 107.453C87.4922 106.141 86.3906 104.367 85.5938 102.133C84.8125 99.8985 84.4219 97.1095 84.4219 93.7657C84.4219 90.047 85.0625 86.8907 86.3438 84.297C87.6406 81.6876 89.4766 79.7032 91.8516 78.3439C94.2266 76.9845 97.0391 76.3048 100.289 76.3048C102.57 76.3048 104.398 76.5392 105.773 77.0079C107.164 77.4767 108.219 78.0314 108.938 78.672C109.656 79.297 110.164 79.8439 110.461 80.3126C110.57 80.4845 110.648 80.6407 110.695 80.7814C110.742 80.9064 110.773 81.1095 110.789 81.3907C110.836 81.7657 110.844 82.3126 110.812 83.0314C110.797 83.7501 110.742 84.3829 110.648 84.9298C110.586 85.2735 110.484 85.5001 110.344 85.6095C110.281 85.672 110.172 85.7267 110.016 85.7735C109.859 85.8204 109.625 85.8439 109.312 85.8439C108.812 85.8439 108.25 85.8282 107.625 85.797C107 85.7501 106.531 85.7032 106.219 85.6564C105.844 85.5939 105.57 85.5079 105.398 85.3985C105.227 85.2735 105.055 85.086 104.883 84.836C104.602 84.4298 104.117 83.961 103.43 83.4298C102.742 82.8985 101.609 82.6329 100.031 82.6329C97.8125 82.6329 95.9844 83.4923 94.5469 85.211C93.1094 86.9142 92.3906 89.6798 92.3906 93.5079C92.3906 97.3204 93.1406 100.149 94.6406 101.992C96.1562 103.836 98 104.758 100.172 104.758ZM123.633 109.258C123.633 109.727 123.531 110.055 123.328 110.242C123.141 110.414 122.812 110.5 122.344 110.5H117.516C117.047 110.5 116.711 110.414 116.508 110.242C116.32 110.055 116.227 109.727 116.227 109.258V77.547C116.227 77.172 116.305 76.8829 116.461 76.6798C117.117 75.8204 118.078 74.8907 119.344 73.8907C119.562 73.7345 119.758 73.6564 119.93 73.6564C120.133 73.6564 120.328 73.7345 120.516 73.8907C121.188 74.4064 121.75 74.8907 122.203 75.3439C122.672 75.797 123.07 76.2423 123.398 76.6798C123.555 76.8829 123.633 77.172 123.633 77.547V88.9142H123.727C124.07 88.461 124.516 88.0079 125.062 87.5548C125.609 87.086 126.336 86.6954 127.242 86.3829C128.164 86.0704 129.336 85.9142 130.758 85.9142C132.195 85.9142 133.578 86.211 134.906 86.8048C136.234 87.3985 137.32 88.3985 138.164 89.8048C139.008 91.211 139.43 93.1329 139.43 95.5704V109.258C139.43 109.727 139.328 110.055 139.125 110.242C138.938 110.414 138.609 110.5 138.141 110.5H133.312C132.844 110.5 132.508 110.414 132.305 110.242C132.117 110.055 132.023 109.727 132.023 109.258V96.8595C132.023 95.1251 131.664 93.8673 130.945 93.086C130.227 92.2892 129.25 91.8907 128.016 91.8907C126.797 91.8907 125.852 92.1564 125.18 92.6876C124.508 93.2189 123.992 93.8907 123.633 94.7032V109.258ZM144.68 78.6251C144.68 78.422 144.742 78.2423 144.867 78.086C144.992 77.9298 145.156 77.7267 145.359 77.4767C145.797 76.9767 146.305 76.4532 146.883 75.9064C147.461 75.3439 148.047 74.8048 148.641 74.2892C149.016 73.9923 149.297 73.8439 149.484 73.8439C149.672 73.8439 149.961 73.9923 150.352 74.2892C151.617 75.3829 152.695 76.4454 153.586 77.4767C153.789 77.711 153.953 77.9142 154.078 78.086C154.219 78.2423 154.289 78.422 154.289 78.6251C154.289 78.8282 154.219 79.0079 154.078 79.1642C153.953 79.3204 153.781 79.5314 153.562 79.797C153.141 80.2814 152.648 80.8048 152.086 81.3673C151.523 81.9142 150.945 82.4376 150.352 82.9376C150.133 83.1251 149.961 83.2501 149.836 83.3126C149.711 83.3595 149.594 83.3829 149.484 83.3829C149.375 83.3829 149.258 83.3595 149.133 83.3126C149.023 83.2501 148.844 83.1251 148.594 82.9376C147.969 82.4376 147.383 81.9142 146.836 81.3673C146.289 80.8048 145.797 80.2657 145.359 79.7501C145.156 79.5001 144.992 79.3048 144.867 79.1642C144.742 79.0079 144.68 78.8282 144.68 78.6251ZM153.164 109.258C153.164 109.727 153.062 110.055 152.859 110.242C152.672 110.414 152.344 110.5 151.875 110.5H147.047C146.578 110.5 146.242 110.414 146.039 110.242C145.852 110.055 145.758 109.727 145.758 109.258V87.7423C145.758 87.2735 145.852 86.9532 146.039 86.7814C146.242 86.5939 146.578 86.5001 147.047 86.5001H151.875C152.344 86.5001 152.672 86.5939 152.859 86.7814C153.062 86.9532 153.164 87.2735 153.164 87.7423V109.258ZM169.031 111.086C163.812 111.086 161.203 108.375 161.203 102.953V91.961H158.555C158.086 91.961 157.758 91.8673 157.57 91.6798C157.398 91.4767 157.312 91.1407 157.312 90.672V87.7892C157.312 87.3204 157.398 86.9923 157.57 86.8048C157.758 86.6017 158.086 86.5001 158.555 86.5001H161.203V82.7267C161.203 82.3517 161.281 82.0626 161.438 81.8595C162.094 81.0001 163.055 80.0704 164.32 79.0704C164.539 78.9142 164.734 78.836 164.906 78.836C165.094 78.836 165.281 78.9142 165.469 79.0704C166.141 79.586 166.703 80.0704 167.156 80.5235C167.625 80.9767 168.023 81.422 168.352 81.8595C168.508 82.0626 168.586 82.3517 168.586 82.7267V86.5001H172.734C173.203 86.5001 173.523 86.6017 173.695 86.8048C173.883 86.9923 173.977 87.3204 173.977 87.7892V90.672C173.977 91.1407 173.883 91.4767 173.695 91.6798C173.523 91.8673 173.203 91.961 172.734 91.961H168.586V101.664C168.586 104.164 169.492 105.414 171.305 105.414C171.586 105.414 171.844 105.391 172.078 105.344C172.312 105.281 172.516 105.219 172.688 105.156C173.016 105.031 173.242 104.984 173.367 105.016C173.508 105.047 173.633 105.219 173.742 105.531L175.102 109.164C175.242 109.555 175.148 109.836 174.82 110.008C174.586 110.117 174.016 110.32 173.109 110.617C172.219 110.93 170.859 111.086 169.031 111.086ZM185.719 111.086C184.047 111.086 182.656 110.945 181.547 110.664C180.453 110.383 179.57 110.047 178.898 109.656C178.242 109.25 177.727 108.883 177.352 108.555C177.07 108.289 177.039 107.992 177.258 107.664L179.648 104.125C179.992 103.625 180.383 103.594 180.82 104.031C181.273 104.469 181.883 104.899 182.648 105.32C183.43 105.727 184.398 105.93 185.555 105.93C186.586 105.93 187.43 105.758 188.086 105.414C188.758 105.055 189.094 104.539 189.094 103.867C189.094 103.399 188.945 103.016 188.648 102.719C188.352 102.422 187.828 102.117 187.078 101.805C186.328 101.492 185.281 101.094 183.938 100.609C181.953 99.8907 180.453 99.0235 179.438 98.0079C178.422 96.9923 177.914 95.5079 177.914 93.5548C177.914 91.7579 178.406 90.297 179.391 89.172C180.391 88.047 181.664 87.2267 183.211 86.711C184.773 86.1798 186.398 85.9142 188.086 85.9142C190.227 85.9142 191.727 86.1173 192.586 86.5235C193.461 86.9142 194.023 87.2189 194.273 87.4376C194.508 87.6407 194.672 87.8751 194.766 88.1407C194.969 88.7501 195.125 89.5548 195.234 90.5548C195.297 91.1329 195.148 91.5157 194.789 91.7032C194.602 91.8126 194.305 91.9298 193.898 92.0548C193.492 92.1798 193.086 92.2892 192.68 92.3829C192.273 92.4767 191.969 92.5235 191.766 92.5235C191.703 92.5235 191.633 92.5079 191.555 92.4767C191.492 92.4298 191.375 92.3282 191.203 92.172C191 91.9689 190.648 91.7345 190.148 91.4689C189.664 91.2032 188.992 91.0704 188.133 91.0704C187.289 91.0704 186.578 91.211 186 91.4923C185.438 91.7579 185.156 92.2345 185.156 92.922C185.156 93.672 185.516 94.2345 186.234 94.6095C186.969 94.9845 188.172 95.4689 189.844 96.0626C191.156 96.5157 192.297 97.0157 193.266 97.5626C194.25 98.0939 195.008 98.797 195.539 99.672C196.07 100.531 196.336 101.695 196.336 103.164C196.336 105.07 195.812 106.609 194.766 107.781C193.734 108.938 192.406 109.781 190.781 110.313C189.172 110.828 187.484 111.086 185.719 111.086Z" fill="#566579"/>
<defs>
<filter id="filter0_dd_248_3200" x="72" y="0.499878" width="54" height="55.0002" filterUnits="userSpaceOnUse" color-interpolation-filters="sRGB">
<feFlood flood-opacity="0" result="BackgroundImageFix"/>
<feColorMatrix in="SourceAlpha" type="matrix" values="0 0 0 0 0 0 0 0 0 0 0 0 0 0 0 0 0 0 127 0" result="hardAlpha"/>
<feMorphology radius="1" operator="erode" in="SourceAlpha" result="effect1_dropShadow_248_3200"/>
<feOffset dy="4"/>
<feGaussianBlur stdDeviation="2"/>
<feComposite in2="hardAlpha" operator="out"/>
<feColorMatrix type="matrix" values="0 0 0 0 0.0470588 0 0 0 0 0.0470588 0 0 0 0 0.0509804 0 0 0 0.05 0"/>
<feBlend mode="normal" in2="BackgroundImageFix" result="effect1_dropShadow_248_3200"/>
<feColorMatrix in="SourceAlpha" type="matrix" values="0 0 0 0 0 0 0 0 0 0 0 0 0 0 0 0 0 0 127 0" result="hardAlpha"/>
<feMorphology radius="1" operator="erode" in="SourceAlpha" result="effect2_dropShadow_248_3200"/>
<feOffset dy="4"/>
<feGaussianBlur stdDeviation="2"/>
<feComposite in2="hardAlpha" operator="out"/>
<feColorMatrix type="matrix" values="0 0 0 0 0.0470588 0 0 0 0 0.0470588 0 0 0 0 0.0509804 0 0 0 0.1 0"/>
<feBlend mode="normal" in2="effect1_dropShadow_248_3200" result="effect2_dropShadow_248_3200"/>
<feBlend mode="normal" in="SourceGraphic" in2="effect2_dropShadow_248_3200" result="shape"/>
</filter>
<linearGradient id="paint0_linear_248_3200" x1="83.88" y1="6.97988" x2="113.88" y2="43.6999" gradientUnits="userSpaceOnUse">
<stop stop-color="#FE3967"/>
<stop offset="1" stop-color="#ADD1E2"/>
</linearGradient>
<linearGradient id="paint1_linear_248_3200" x1="115.56" y1="7.21988" x2="99" y2="18.4999" gradientUnits="userSpaceOnUse">
<stop stop-color="#E098FE"/>
<stop offset="1" stop-color="#E098FE" stop-opacity="0"/>
</linearGradient>
<linearGradient id="paint2_linear_248_3200" x1="106.309" y1="0.73622" x2="95.553" y2="26.3116" gradientUnits="userSpaceOnUse">
<stop stop-color="#FEAD2B"/>
<stop offset="1" stop-color="#FEAD2A" stop-opacity="0"/>
</linearGradient>
<radialGradient id="paint3_radial_248_3200" cx="0" cy="0" r="1" gradientUnits="userSpaceOnUse" gradientTransform="translate(121.808 29.142) rotate(-167.778) scale(35.2988)">
<stop stop-color="#33C1FD"/>
<stop offset="1" stop-color="#E098FE" stop-opacity="0"/>
</radialGradient>
</defs>
</svg>
