<svg width="88" height="120" viewBox="0 0 88 120" fill="none" xmlns="http://www.w3.org/2000/svg">
<g filter="url(#filter0_dd_57_3527)">
<rect x="20" width="48" height="48" rx="24" fill="white" shape-rendering="crispEdges"/>
<mask id="mask0_57_3527" style="mask-type:alpha" maskUnits="userSpaceOnUse" x="20" y="0" width="48" height="48">
<rect x="20" width="48" height="48" fill="#D9D9D9"/>
</mask>
<g mask="url(#mask0_57_3527)">
<path d="M49.6747 37.1419C50.0406 36.8017 50.2406 36.3886 50.2747 35.9027C50.3084 35.4168 50.1423 34.9909 49.7764 34.625L42.2802 26.6526L42.3434 26.4632H42.9749C45.3459 26.4632 47.2949 25.8008 48.8221 24.4762C50.3488 23.1516 51.2484 21.4981 51.5208 19.5158H52.7644C53.1219 19.5158 53.417 19.3918 53.6499 19.1438C53.8823 18.8958 53.9985 18.5945 53.9985 18.24C53.9985 17.8859 53.8823 17.5922 53.6499 17.3589C53.417 17.1257 53.1219 17.0091 52.7644 17.0091H51.4577C51.3314 16.2478 51.0819 15.5425 50.7093 14.8933C50.3366 14.2436 49.8703 13.6451 49.3103 13.0977H52.7644C53.1219 13.0977 53.417 12.9737 53.6499 12.7257C53.8823 12.4777 53.9985 12.1766 53.9985 11.8225C53.9985 11.468 53.8823 11.1741 53.6499 10.9408C53.417 10.7076 53.1219 10.5909 52.7644 10.5909H35.4686C35.064 10.5909 34.7183 10.7347 34.4316 11.0223C34.1448 11.3095 34.0015 11.656 34.0015 12.0619C34.0015 12.4678 34.1448 12.8067 34.4316 13.0787C34.7183 13.3507 35.064 13.4867 35.4686 13.4867H42.9554C44.3255 13.4867 45.4509 13.8091 46.3318 14.4537C47.2131 15.0979 47.78 15.9497 48.0326 17.0091H35.2356C34.8781 17.0091 34.5829 17.1331 34.3501 17.3811C34.1177 17.6291 34.0015 17.9303 34.0015 18.2848C34.0015 18.6389 34.1177 18.9326 34.3501 19.1659C34.5829 19.3992 34.8781 19.5158 35.2356 19.5158H48.0958C47.8756 20.6657 47.3143 21.6025 46.412 22.3263C45.5101 23.0501 44.3189 23.412 42.8385 23.412H39.8076C39.3061 23.412 38.8722 23.5303 38.5059 23.7669C38.1396 24.0032 37.8674 24.3286 37.6893 24.7434C37.5112 25.1581 37.456 25.5792 37.5238 26.0065C37.592 26.4339 37.7994 26.8419 38.1459 27.2305L47.1825 37.0787C47.5223 37.4446 47.9312 37.6316 48.409 37.6396C48.8865 37.6476 49.3084 37.4817 49.6747 37.1419ZM44.0044 48C40.6848 48 37.5646 47.3701 34.6438 46.1103C31.7229 44.8505 29.1823 43.1408 27.0219 40.9813C24.8615 38.8217 23.1509 36.2821 21.8903 33.3625C20.6301 30.4429 20 27.3236 20 24.0044C20 20.6848 20.6299 17.5646 21.8897 14.6438C23.1495 11.7229 24.8592 9.18231 27.0187 7.02189C29.1783 4.86147 31.7179 3.15095 34.6375 1.89032C37.5571 0.630105 40.6764 0 43.9956 0C47.3152 0 50.4354 0.629894 53.3562 1.88968C56.2771 3.14947 58.8177 4.85916 60.9781 7.01874C63.1385 9.17832 64.8491 11.7179 66.1097 14.6375C67.3699 17.5571 68 20.6764 68 23.9956C68 27.3152 67.3701 30.4354 66.1103 33.3562C64.8505 36.2771 63.1408 38.8177 60.9813 40.9781C58.8217 43.1385 56.2821 44.8491 53.3625 46.1097C50.4429 47.3699 47.3236 48 44.0044 48Z" fill="#6366F1"/>
</g>
</g>
<path d="M27.84 99.84C27.488 101.28 26.912 102.56 26.112 103.68C25.344 104.768 24.4 105.696 23.28 106.464C22.192 107.232 20.96 107.808 19.584 108.192C18.24 108.576 16.816 108.768 15.312 108.768C11.184 108.768 7.968 107.312 5.664 104.4C3.392 101.488 2.256 97.088 2.256 91.2C2.256 89.024 2.448 86.8 2.832 84.528C3.216 82.256 3.888 80.192 4.848 78.336C5.808 76.48 7.088 74.96 8.688 73.776C10.32 72.592 12.368 72 14.832 72C16.016 72 17.168 72.16 18.288 72.48C19.408 72.768 20.384 73.232 21.216 73.872C22.08 74.48 22.768 75.264 23.28 76.224C23.792 77.184 24.048 78.304 24.048 79.584C24.048 80.544 23.856 81.328 23.472 81.936C23.12 82.544 22.448 82.848 21.456 82.848C21.072 82.848 20.608 82.784 20.064 82.656C19.552 82.496 19.008 82.144 18.432 81.6C18.848 81.344 19.184 80.88 19.44 80.208C19.696 79.504 19.824 78.816 19.824 78.144C19.824 77.12 19.52 76.224 18.912 75.456C18.304 74.656 17.488 74.256 16.464 74.256C15.376 74.256 14.432 74.72 13.632 75.648C12.832 76.576 12.16 77.808 11.616 79.344C11.104 80.848 10.72 82.576 10.464 84.528C10.208 86.448 10.08 88.416 10.08 90.432C10.08 93.088 10.288 95.312 10.704 97.104C11.152 98.896 11.744 100.336 12.48 101.424C13.216 102.512 14.08 103.28 15.072 103.728C16.096 104.176 17.184 104.4 18.336 104.4C20.16 104.4 21.792 103.952 23.232 103.056C24.704 102.128 25.84 100.896 26.64 99.36L27.84 99.84ZM38.6824 93.456C38.6824 91.536 38.4744 90.176 38.0584 89.376C37.6424 88.576 37.0344 88.176 36.2344 88.176C35.7544 88.176 35.3384 88.304 34.9864 88.56C34.6664 88.816 34.3944 89.152 34.1704 89.568C33.9464 89.984 33.7704 90.464 33.6424 91.008C33.5144 91.52 33.4344 92.048 33.4024 92.592V108H26.4904V75.36L33.4024 74.4V86.496C34.1384 85.376 34.9704 84.656 35.8984 84.336C36.8264 83.984 37.7064 83.808 38.5384 83.808C39.4344 83.808 40.2824 83.952 41.0824 84.24C41.9144 84.528 42.6344 85.024 43.2424 85.728C43.8824 86.4 44.3784 87.312 44.7304 88.464C45.0824 89.584 45.2584 90.976 45.2584 92.64C45.2584 93.056 45.2424 93.584 45.2104 94.224C45.2104 94.832 45.1944 95.456 45.1624 96.096C45.1304 96.736 45.0984 97.36 45.0664 97.968C45.0664 98.576 45.0664 99.088 45.0664 99.504C45.0664 100.88 45.2264 101.92 45.5464 102.624C45.8984 103.296 46.5704 103.632 47.5624 103.632C48.1064 103.632 48.5544 103.536 48.9064 103.344C49.2584 103.12 49.5464 102.816 49.7704 102.432C49.9944 102.048 50.1704 101.6 50.2984 101.088C50.4584 100.576 50.6024 100.016 50.7304 99.408H52.7464C52.4904 101.328 52.1064 102.88 51.5944 104.064C51.0824 105.216 50.4904 106.112 49.8184 106.752C49.1784 107.36 48.4904 107.776 47.7544 108C47.0184 108.192 46.2984 108.288 45.5944 108.288C43.1304 108.288 41.3384 107.472 40.2184 105.84C39.1304 104.208 38.5864 102.032 38.5864 99.312C38.5864 99.024 38.5864 98.624 38.5864 98.112C38.6184 97.568 38.6344 97.008 38.6344 96.432C38.6344 95.856 38.6344 95.296 38.6344 94.752C38.6664 94.208 38.6824 93.776 38.6824 93.456ZM57.6368 84V100.32C57.6368 101.664 57.8128 102.56 58.1648 103.008C58.5488 103.424 59.2048 103.632 60.1328 103.632C61.0608 103.632 61.8288 103.232 62.4368 102.432C63.0768 101.632 63.4448 100.624 63.5408 99.408H65.5568C65.3008 101.36 64.8528 102.928 64.2128 104.112C63.5728 105.264 62.8528 106.16 62.0528 106.8C61.2528 107.408 60.4368 107.808 59.6048 108C58.7728 108.192 58.0368 108.288 57.3968 108.288C54.9328 108.288 53.2048 107.616 52.2128 106.272C51.2208 104.896 50.7248 103.088 50.7248 100.848V84H57.6368ZM50.1968 77.616C50.1968 76.56 50.5648 75.664 51.3008 74.928C52.0368 74.16 52.9328 73.776 53.9888 73.776C55.0448 73.776 55.9408 74.16 56.6768 74.928C57.4448 75.664 57.8288 76.56 57.8288 77.616C57.8288 78.672 57.4448 79.568 56.6768 80.304C55.9408 81.04 55.0448 81.408 53.9888 81.408C52.9328 81.408 52.0368 81.04 51.3008 80.304C50.5648 79.568 50.1968 78.672 50.1968 77.616ZM70.4336 76.416V84H73.3616V85.92H70.4336V100.32C70.4336 101.664 70.6096 102.56 70.9616 103.008C71.3456 103.424 72.0016 103.632 72.9296 103.632C73.8576 103.632 74.6256 103.232 75.2336 102.432C75.8736 101.632 76.2416 100.624 76.3376 99.408H78.3536C78.0976 101.36 77.6496 102.928 77.0096 104.112C76.3696 105.264 75.6496 106.16 74.8496 106.8C74.0496 107.408 73.2336 107.808 72.4016 108C71.5696 108.192 70.8336 108.288 70.1936 108.288C67.7296 108.288 66.0016 107.616 65.0096 106.272C64.0176 104.896 63.5216 103.088 63.5216 100.848V85.92H61.9856V84H63.5216V77.376L70.4336 76.416ZM75.7905 77.616C75.7905 76.56 76.1585 75.664 76.8945 74.928C77.6305 74.16 78.5265 73.776 79.5825 73.776C80.6385 73.776 81.5345 74.16 82.2705 74.928C83.0385 75.664 83.4225 76.56 83.4225 77.616C83.4225 78.672 83.0385 79.568 82.2705 80.304C81.5345 81.04 80.6385 81.408 79.5825 81.408C78.5265 81.408 77.6305 81.04 76.8945 80.304C76.1585 79.568 75.7905 78.672 75.7905 77.616ZM83.2305 84V100.32C83.2305 101.664 83.4065 102.56 83.7585 103.008C84.1425 103.424 84.7985 103.632 85.7265 103.632C86.1425 103.632 86.4465 103.6 86.6385 103.536C86.8625 103.472 87.0545 103.408 87.2145 103.344C87.2465 103.504 87.2625 103.664 87.2625 103.824C87.2625 103.984 87.2625 104.144 87.2625 104.304C87.2625 105.104 87.1185 105.76 86.8305 106.272C86.5745 106.784 86.2225 107.2 85.7745 107.52C85.3585 107.808 84.8945 108 84.3825 108.096C83.9025 108.224 83.4385 108.288 82.9905 108.288C80.5265 108.288 78.7985 107.616 77.8065 106.272C76.8145 104.896 76.3185 103.088 76.3185 100.848V84H83.2305Z" fill="#334155"/>
<defs>
<filter id="filter0_dd_57_3527" x="17" y="0" width="54" height="55" filterUnits="userSpaceOnUse" color-interpolation-filters="sRGB">
<feFlood flood-opacity="0" result="BackgroundImageFix"/>
<feColorMatrix in="SourceAlpha" type="matrix" values="0 0 0 0 0 0 0 0 0 0 0 0 0 0 0 0 0 0 127 0" result="hardAlpha"/>
<feMorphology radius="1" operator="erode" in="SourceAlpha" result="effect1_dropShadow_57_3527"/>
<feOffset dy="4"/>
<feGaussianBlur stdDeviation="2"/>
<feComposite in2="hardAlpha" operator="out"/>
<feColorMatrix type="matrix" values="0 0 0 0 0.0470588 0 0 0 0 0.0470588 0 0 0 0 0.0509804 0 0 0 0.05 0"/>
<feBlend mode="normal" in2="BackgroundImageFix" result="effect1_dropShadow_57_3527"/>
<feColorMatrix in="SourceAlpha" type="matrix" values="0 0 0 0 0 0 0 0 0 0 0 0 0 0 0 0 0 0 127 0" result="hardAlpha"/>
<feMorphology radius="1" operator="erode" in="SourceAlpha" result="effect2_dropShadow_57_3527"/>
<feOffset dy="4"/>
<feGaussianBlur stdDeviation="2"/>
<feComposite in2="hardAlpha" operator="out"/>
<feColorMatrix type="matrix" values="0 0 0 0 0.0470588 0 0 0 0 0.0470588 0 0 0 0 0.0509804 0 0 0 0.1 0"/>
<feBlend mode="normal" in2="effect1_dropShadow_57_3527" result="effect2_dropShadow_57_3527"/>
<feBlend mode="normal" in="SourceGraphic" in2="effect2_dropShadow_57_3527" result="shape"/>
</filter>
</defs>
</svg>
