<svg width="54" height="56" viewBox="0 0 54 56" fill="none" xmlns="http://www.w3.org/2000/svg">
<g filter="url(#filter0_dd_248_3204)">
<circle cx="27" cy="24.4999" r="24" fill="url(#paint0_linear_248_3204)"/>
<circle cx="27" cy="24.4999" r="24" fill="url(#paint1_linear_248_3204)"/>
<circle cx="27" cy="24.5001" r="24" transform="rotate(-180 27 24.5001)" fill="url(#paint2_linear_248_3204)"/>
<circle cx="27" cy="24.4999" r="24" fill="url(#paint3_radial_248_3204)"/>
<mask id="mask0_248_3204" style="mask-type:alpha" maskUnits="userSpaceOnUse" x="9" y="7" width="35" height="35">
<rect width="24" height="24" transform="matrix(0.707107 0.707107 0.707107 -0.707107 9.98877 24.4594)" fill="#D9D9D9"/>
</mask>
<g mask="url(#mask0_248_3204)">
<path d="M33.6781 17.7432C32.7489 16.814 31.6993 16.117 30.5292 15.6521C29.359 15.1872 28.1694 14.9546 26.9602 14.9543C25.7511 14.9541 24.5615 15.1861 23.3915 15.6505C22.2215 16.1149 21.1721 16.8117 20.2431 17.7407C19.3139 18.6698 18.6169 19.7195 18.152 20.8896C17.687 22.0598 17.4545 23.2494 17.4542 24.4586C17.454 25.6677 17.686 26.8573 18.1504 28.0273C18.6148 29.1972 19.3116 30.2467 20.2406 31.1757C21.1697 32.1049 22.2194 32.8019 23.3895 33.2668C24.5597 33.7317 25.7493 33.9643 26.9585 33.9645C28.1676 33.9648 29.3572 33.7327 30.5272 33.2684C31.6971 32.804 32.7466 32.1072 33.6756 31.1782C34.6047 30.2491 35.3018 29.1994 35.7667 28.0293C36.2316 26.8591 36.4642 25.6695 36.4644 24.4603C36.4647 23.2512 36.2326 22.0616 35.7683 20.8916C35.3038 19.7217 34.6071 18.6722 33.6781 17.7432ZM27.5957 23.3281L30.1807 20.7431C30.3376 20.5862 30.5058 20.5653 30.6853 20.6805C30.8647 20.7956 30.9191 20.9556 30.8484 21.1604L28.6005 26.9248C28.5371 27.0789 28.4228 27.1762 28.2574 27.2166C28.0921 27.2571 27.9522 27.22 27.8377 27.1056L26.429 25.6969L23.7883 28.3376C23.6315 28.4944 23.4615 28.5171 23.2783 28.4056C23.0952 28.2941 23.039 28.136 23.1097 27.9312L25.3425 22.0185C25.4132 21.8573 25.5273 21.756 25.6846 21.7146C25.8418 21.6734 25.9785 21.7108 26.0945 21.8269L27.5957 23.3281Z" fill="white"/>
</g>
<path d="M46.1593 24.4594C46.1593 35.0633 37.5632 43.6594 26.9593 43.6594C16.3555 43.6594 7.75934 35.0633 7.75934 24.4594C7.75934 13.8556 16.3555 5.25945 26.9593 5.25945C37.5632 5.25945 46.1593 13.8556 46.1593 24.4594ZM11.5993 24.4594C11.5993 32.9425 18.4762 39.8194 26.9593 39.8194C35.4424 39.8194 42.3193 32.9425 42.3193 24.4594C42.3193 15.9764 35.4424 9.09944 26.9593 9.09944C18.4762 9.09944 11.5993 15.9764 11.5993 24.4594Z" fill="white" fill-opacity="0.85"/>
</g>
<defs>
<filter id="filter0_dd_248_3204" x="0" y="0.499878" width="54" height="55.0002" filterUnits="userSpaceOnUse" color-interpolation-filters="sRGB">
<feFlood flood-opacity="0" result="BackgroundImageFix"/>
<feColorMatrix in="SourceAlpha" type="matrix" values="0 0 0 0 0 0 0 0 0 0 0 0 0 0 0 0 0 0 127 0" result="hardAlpha"/>
<feMorphology radius="1" operator="erode" in="SourceAlpha" result="effect1_dropShadow_248_3204"/>
<feOffset dy="4"/>
<feGaussianBlur stdDeviation="2"/>
<feComposite in2="hardAlpha" operator="out"/>
<feColorMatrix type="matrix" values="0 0 0 0 0.0470588 0 0 0 0 0.0470588 0 0 0 0 0.0509804 0 0 0 0.05 0"/>
<feBlend mode="normal" in2="BackgroundImageFix" result="effect1_dropShadow_248_3204"/>
<feColorMatrix in="SourceAlpha" type="matrix" values="0 0 0 0 0 0 0 0 0 0 0 0 0 0 0 0 0 0 127 0" result="hardAlpha"/>
<feMorphology radius="1" operator="erode" in="SourceAlpha" result="effect2_dropShadow_248_3204"/>
<feOffset dy="4"/>
<feGaussianBlur stdDeviation="2"/>
<feComposite in2="hardAlpha" operator="out"/>
<feColorMatrix type="matrix" values="0 0 0 0 0.0470588 0 0 0 0 0.0470588 0 0 0 0 0.0509804 0 0 0 0.1 0"/>
<feBlend mode="normal" in2="effect1_dropShadow_248_3204" result="effect2_dropShadow_248_3204"/>
<feBlend mode="normal" in="SourceGraphic" in2="effect2_dropShadow_248_3204" result="shape"/>
</filter>
<linearGradient id="paint0_linear_248_3204" x1="11.88" y1="6.97988" x2="41.88" y2="43.6999" gradientUnits="userSpaceOnUse">
<stop stop-color="#FE3967"/>
<stop offset="1" stop-color="#ADD1E2"/>
</linearGradient>
<linearGradient id="paint1_linear_248_3204" x1="43.56" y1="7.21988" x2="27" y2="18.4999" gradientUnits="userSpaceOnUse">
<stop stop-color="#E098FE"/>
<stop offset="1" stop-color="#E098FE" stop-opacity="0"/>
</linearGradient>
<linearGradient id="paint2_linear_248_3204" x1="34.309" y1="0.73622" x2="23.553" y2="26.3116" gradientUnits="userSpaceOnUse">
<stop stop-color="#FEAD2B"/>
<stop offset="1" stop-color="#FEAD2A" stop-opacity="0"/>
</linearGradient>
<radialGradient id="paint3_radial_248_3204" cx="0" cy="0" r="1" gradientUnits="userSpaceOnUse" gradientTransform="translate(49.8078 29.142) rotate(-167.778) scale(35.2988)">
<stop stop-color="#33C1FD"/>
<stop offset="1" stop-color="#E098FE" stop-opacity="0"/>
</radialGradient>
</defs>
</svg>
