<svg width="88" height="128" viewBox="0 0 88 128" fill="none" xmlns="http://www.w3.org/2000/svg">
<mask id="mask0_54_217" style="mask-type:alpha" maskUnits="userSpaceOnUse" x="12" y="0" width="64" height="64">
<rect x="12" width="64" height="64" fill="#D9D9D9"/>
</mask>
<g mask="url(#mask0_54_217)">
<path d="M49.9901 45.872C50.3763 45.5129 50.5874 45.0769 50.6234 44.564C50.659 44.0511 50.4836 43.6016 50.0974 43.2154L42.1847 34.8L42.2514 34.6H42.9181C45.4207 34.6 47.4781 33.9009 49.0901 32.5027C50.7016 31.1045 51.6512 29.3591 51.9387 27.2667H53.2514C53.6287 27.2667 53.9403 27.1358 54.1861 26.874C54.4314 26.6122 54.5541 26.2942 54.5541 25.92C54.5541 25.5462 54.4314 25.2362 54.1861 24.99C53.9403 24.7438 53.6287 24.6207 53.2514 24.6207H51.8721C51.7387 23.8171 51.4754 23.0727 51.0821 22.3874C50.6887 21.7016 50.1965 21.0698 49.6054 20.492H53.2514C53.6287 20.492 53.9403 20.3611 54.1861 20.0994C54.4314 19.8376 54.5541 19.5198 54.5541 19.146C54.5541 18.7718 54.4314 18.4616 54.1861 18.2154C53.9403 17.9691 53.6287 17.846 53.2514 17.846H34.9947C34.5676 17.846 34.2027 17.9978 33.9001 18.3014C33.5974 18.6045 33.4461 18.9702 33.4461 19.3987C33.4461 19.8271 33.5974 20.1849 33.9001 20.472C34.2027 20.7591 34.5676 20.9027 34.9947 20.9027H42.8974C44.3436 20.9027 45.5316 21.2429 46.4614 21.9234C47.3916 22.6034 47.9901 23.5025 48.2567 24.6207H34.7487C34.3714 24.6207 34.0599 24.7516 33.8141 25.0134C33.5687 25.2751 33.4461 25.5931 33.4461 25.9674C33.4461 26.3411 33.5687 26.6511 33.8141 26.8974C34.0599 27.1436 34.3714 27.2667 34.7487 27.2667H48.3234C48.091 28.4805 47.4985 29.4694 46.5461 30.2334C45.5941 30.9974 44.3367 31.3794 42.7741 31.3794H39.5747C39.0454 31.3794 38.5874 31.5042 38.2007 31.754C37.8141 32.0034 37.5267 32.3469 37.3387 32.7847C37.1507 33.2225 37.0925 33.6669 37.1641 34.118C37.2361 34.5691 37.455 34.9998 37.8207 35.41L47.3594 45.8053C47.7181 46.1916 48.1496 46.3889 48.6541 46.3974C49.1581 46.4058 49.6034 46.2307 49.9901 45.872ZM44.0047 57.3334C40.5007 57.3334 37.2072 56.6685 34.1241 55.3387C31.041 54.0089 28.3592 52.2042 26.0787 49.9247C23.7983 47.6451 21.9927 44.9645 20.6621 41.8827C19.3319 38.8009 18.6667 35.5082 18.6667 32.0047C18.6667 28.5007 19.3316 25.2071 20.6614 22.124C21.9912 19.0409 23.7959 16.3591 26.0754 14.0787C28.355 11.7982 31.0356 9.99269 34.1174 8.66202C37.1992 7.3318 40.4919 6.66669 43.9954 6.66669C47.4994 6.66669 50.793 7.33157 53.8761 8.66135C56.9592 9.99113 59.641 11.7958 61.9214 14.0754C64.2019 16.3549 66.0074 19.0356 67.3381 22.1174C68.6683 25.1991 69.3334 28.4918 69.3334 31.9954C69.3334 35.4994 68.6685 38.7929 67.3387 41.876C66.009 44.9591 64.2043 47.6409 61.9247 49.9214C59.6452 52.2018 56.9645 54.0074 53.8827 55.338C50.801 56.6682 47.5083 57.3334 44.0047 57.3334Z" fill="#EA580C"/>
</g>
<path d="M27.84 107.84C27.488 109.28 26.912 110.56 26.112 111.68C25.344 112.768 24.4 113.696 23.28 114.464C22.192 115.232 20.96 115.808 19.584 116.192C18.24 116.576 16.816 116.768 15.312 116.768C11.184 116.768 7.968 115.312 5.664 112.4C3.392 109.488 2.256 105.088 2.256 99.2C2.256 97.024 2.448 94.8 2.832 92.528C3.216 90.256 3.888 88.192 4.848 86.336C5.808 84.48 7.088 82.96 8.688 81.776C10.32 80.592 12.368 80 14.832 80C16.016 80 17.168 80.16 18.288 80.48C19.408 80.768 20.384 81.232 21.216 81.872C22.08 82.48 22.768 83.264 23.28 84.224C23.792 85.184 24.048 86.304 24.048 87.584C24.048 88.544 23.856 89.328 23.472 89.936C23.12 90.544 22.448 90.848 21.456 90.848C21.072 90.848 20.608 90.784 20.064 90.656C19.552 90.496 19.008 90.144 18.432 89.6C18.848 89.344 19.184 88.88 19.44 88.208C19.696 87.504 19.824 86.816 19.824 86.144C19.824 85.12 19.52 84.224 18.912 83.456C18.304 82.656 17.488 82.256 16.464 82.256C15.376 82.256 14.432 82.72 13.632 83.648C12.832 84.576 12.16 85.808 11.616 87.344C11.104 88.848 10.72 90.576 10.464 92.528C10.208 94.448 10.08 96.416 10.08 98.432C10.08 101.088 10.288 103.312 10.704 105.104C11.152 106.896 11.744 108.336 12.48 109.424C13.216 110.512 14.08 111.28 15.072 111.728C16.096 112.176 17.184 112.4 18.336 112.4C20.16 112.4 21.792 111.952 23.232 111.056C24.704 110.128 25.84 108.896 26.64 107.36L27.84 107.84ZM38.6824 101.456C38.6824 99.536 38.4744 98.176 38.0584 97.376C37.6424 96.576 37.0344 96.176 36.2344 96.176C35.7544 96.176 35.3384 96.304 34.9864 96.56C34.6664 96.816 34.3944 97.152 34.1704 97.568C33.9464 97.984 33.7704 98.464 33.6424 99.008C33.5144 99.52 33.4344 100.048 33.4024 100.592V116H26.4904V83.36L33.4024 82.4V94.496C34.1384 93.376 34.9704 92.656 35.8984 92.336C36.8264 91.984 37.7064 91.808 38.5384 91.808C39.4344 91.808 40.2824 91.952 41.0824 92.24C41.9144 92.528 42.6344 93.024 43.2424 93.728C43.8824 94.4 44.3784 95.312 44.7304 96.464C45.0824 97.584 45.2584 98.976 45.2584 100.64C45.2584 101.056 45.2424 101.584 45.2104 102.224C45.2104 102.832 45.1944 103.456 45.1624 104.096C45.1304 104.736 45.0984 105.36 45.0664 105.968C45.0664 106.576 45.0664 107.088 45.0664 107.504C45.0664 108.88 45.2264 109.92 45.5464 110.624C45.8984 111.296 46.5704 111.632 47.5624 111.632C48.1064 111.632 48.5544 111.536 48.9064 111.344C49.2584 111.12 49.5464 110.816 49.7704 110.432C49.9944 110.048 50.1704 109.6 50.2984 109.088C50.4584 108.576 50.6024 108.016 50.7304 107.408H52.7464C52.4904 109.328 52.1064 110.88 51.5944 112.064C51.0824 113.216 50.4904 114.112 49.8184 114.752C49.1784 115.36 48.4904 115.776 47.7544 116C47.0184 116.192 46.2984 116.288 45.5944 116.288C43.1304 116.288 41.3384 115.472 40.2184 113.84C39.1304 112.208 38.5864 110.032 38.5864 107.312C38.5864 107.024 38.5864 106.624 38.5864 106.112C38.6184 105.568 38.6344 105.008 38.6344 104.432C38.6344 103.856 38.6344 103.296 38.6344 102.752C38.6664 102.208 38.6824 101.776 38.6824 101.456ZM57.6368 92V108.32C57.6368 109.664 57.8128 110.56 58.1648 111.008C58.5488 111.424 59.2048 111.632 60.1328 111.632C61.0608 111.632 61.8288 111.232 62.4368 110.432C63.0768 109.632 63.4448 108.624 63.5408 107.408H65.5568C65.3008 109.36 64.8528 110.928 64.2128 112.112C63.5728 113.264 62.8528 114.16 62.0528 114.8C61.2528 115.408 60.4368 115.808 59.6048 116C58.7728 116.192 58.0368 116.288 57.3968 116.288C54.9328 116.288 53.2048 115.616 52.2128 114.272C51.2208 112.896 50.7248 111.088 50.7248 108.848V92H57.6368ZM50.1968 85.616C50.1968 84.56 50.5648 83.664 51.3008 82.928C52.0368 82.16 52.9328 81.776 53.9888 81.776C55.0448 81.776 55.9408 82.16 56.6768 82.928C57.4448 83.664 57.8288 84.56 57.8288 85.616C57.8288 86.672 57.4448 87.568 56.6768 88.304C55.9408 89.04 55.0448 89.408 53.9888 89.408C52.9328 89.408 52.0368 89.04 51.3008 88.304C50.5648 87.568 50.1968 86.672 50.1968 85.616ZM70.4336 84.416V92H73.3616V93.92H70.4336V108.32C70.4336 109.664 70.6096 110.56 70.9616 111.008C71.3456 111.424 72.0016 111.632 72.9296 111.632C73.8576 111.632 74.6256 111.232 75.2336 110.432C75.8736 109.632 76.2416 108.624 76.3376 107.408H78.3536C78.0976 109.36 77.6496 110.928 77.0096 112.112C76.3696 113.264 75.6496 114.16 74.8496 114.8C74.0496 115.408 73.2336 115.808 72.4016 116C71.5696 116.192 70.8336 116.288 70.1936 116.288C67.7296 116.288 66.0016 115.616 65.0096 114.272C64.0176 112.896 63.5216 111.088 63.5216 108.848V93.92H61.9856V92H63.5216V85.376L70.4336 84.416ZM75.7905 85.616C75.7905 84.56 76.1585 83.664 76.8945 82.928C77.6305 82.16 78.5265 81.776 79.5825 81.776C80.6385 81.776 81.5345 82.16 82.2705 82.928C83.0385 83.664 83.4225 84.56 83.4225 85.616C83.4225 86.672 83.0385 87.568 82.2705 88.304C81.5345 89.04 80.6385 89.408 79.5825 89.408C78.5265 89.408 77.6305 89.04 76.8945 88.304C76.1585 87.568 75.7905 86.672 75.7905 85.616ZM83.2305 92V108.32C83.2305 109.664 83.4065 110.56 83.7585 111.008C84.1425 111.424 84.7985 111.632 85.7265 111.632C86.1425 111.632 86.4465 111.6 86.6385 111.536C86.8625 111.472 87.0545 111.408 87.2145 111.344C87.2465 111.504 87.2625 111.664 87.2625 111.824C87.2625 111.984 87.2625 112.144 87.2625 112.304C87.2625 113.104 87.1185 113.76 86.8305 114.272C86.5745 114.784 86.2225 115.2 85.7745 115.52C85.3585 115.808 84.8945 116 84.3825 116.096C83.9025 116.224 83.4385 116.288 82.9905 116.288C80.5265 116.288 78.7985 115.616 77.8065 114.272C76.8145 112.896 76.3185 111.088 76.3185 108.848V92H83.2305Z" fill="#334155"/>
</svg>
