<svg width="54" height="55" viewBox="0 0 54 55" fill="none" xmlns="http://www.w3.org/2000/svg">
<g filter="url(#filter0_dd_62_592)">
<rect x="3" width="48" height="48" rx="24" fill="white" shape-rendering="crispEdges"/>
<mask id="mask0_62_592" style="mask-type:alpha" maskUnits="userSpaceOnUse" x="3" y="0" width="48" height="48">
<rect x="3" width="48" height="48" fill="#D9D9D9"/>
</mask>
<g mask="url(#mask0_62_592)">
<path d="M32.6747 37.1419C33.0406 36.8017 33.2406 36.3886 33.2747 35.9027C33.3084 35.4168 33.1423 34.9909 32.7764 34.625L25.2802 26.6526L25.3434 26.4632H25.9749C28.3459 26.4632 30.2949 25.8008 31.8221 24.4762C33.3488 23.1516 34.2484 21.4981 34.5208 19.5158H35.7644C36.1219 19.5158 36.417 19.3918 36.6499 19.1438C36.8823 18.8958 36.9985 18.5945 36.9985 18.24C36.9985 17.8859 36.8823 17.5922 36.6499 17.3589C36.417 17.1257 36.1219 17.0091 35.7644 17.0091H34.4577C34.3314 16.2478 34.0819 15.5425 33.7093 14.8933C33.3366 14.2436 32.8703 13.6451 32.3103 13.0977H35.7644C36.1219 13.0977 36.417 12.9737 36.6499 12.7257C36.8823 12.4777 36.9985 12.1766 36.9985 11.8225C36.9985 11.468 36.8823 11.1741 36.6499 10.9408C36.417 10.7076 36.1219 10.5909 35.7644 10.5909H18.4686C18.064 10.5909 17.7183 10.7347 17.4316 11.0223C17.1448 11.3095 17.0015 11.656 17.0015 12.0619C17.0015 12.4678 17.1448 12.8067 17.4316 13.0787C17.7183 13.3507 18.064 13.4867 18.4686 13.4867H25.9554C27.3255 13.4867 28.4509 13.8091 29.3318 14.4537C30.2131 15.0979 30.78 15.9497 31.0326 17.0091H18.2356C17.8781 17.0091 17.5829 17.1331 17.3501 17.3811C17.1177 17.6291 17.0015 17.9303 17.0015 18.2848C17.0015 18.6389 17.1177 18.9326 17.3501 19.1659C17.5829 19.3992 17.8781 19.5158 18.2356 19.5158H31.0958C30.8756 20.6657 30.3143 21.6025 29.412 22.3263C28.5101 23.0501 27.3189 23.412 25.8385 23.412H22.8076C22.3061 23.412 21.8722 23.5303 21.5059 23.7669C21.1396 24.0032 20.8674 24.3286 20.6893 24.7434C20.5112 25.1581 20.456 25.5792 20.5238 26.0065C20.592 26.4339 20.7994 26.8419 21.1459 27.2305L30.1825 37.0787C30.5223 37.4446 30.9312 37.6316 31.409 37.6396C31.8865 37.6476 32.3084 37.4817 32.6747 37.1419ZM27.0044 48C23.6848 48 20.5646 47.3701 17.6438 46.1103C14.7229 44.8505 12.1823 43.1408 10.0219 40.9813C7.86147 38.8217 6.15095 36.2821 4.89032 33.3625C3.6301 30.4429 3 27.3236 3 24.0044C3 20.6848 3.62989 17.5646 4.88968 14.6438C6.14947 11.7229 7.85916 9.18231 10.0187 7.02189C12.1783 4.86147 14.7179 3.15095 17.6375 1.89032C20.5571 0.630105 23.6764 0 26.9956 0C30.3152 0 33.4354 0.629894 36.3562 1.88968C39.2771 3.14947 41.8177 4.85916 43.9781 7.01874C46.1385 9.17832 47.8491 11.7179 49.1097 14.6375C50.3699 17.5571 51 20.6764 51 23.9956C51 27.3152 50.3701 30.4354 49.1103 33.3562C47.8505 36.2771 46.1408 38.8177 43.9813 40.9781C41.8217 43.1385 39.2821 44.8491 36.3625 46.1097C33.4429 47.3699 30.3236 48 27.0044 48Z" fill="#6366F1"/>
</g>
</g>
<defs>
<filter id="filter0_dd_62_592" x="0" y="0" width="54" height="55" filterUnits="userSpaceOnUse" color-interpolation-filters="sRGB">
<feFlood flood-opacity="0" result="BackgroundImageFix"/>
<feColorMatrix in="SourceAlpha" type="matrix" values="0 0 0 0 0 0 0 0 0 0 0 0 0 0 0 0 0 0 127 0" result="hardAlpha"/>
<feMorphology radius="1" operator="erode" in="SourceAlpha" result="effect1_dropShadow_62_592"/>
<feOffset dy="4"/>
<feGaussianBlur stdDeviation="2"/>
<feComposite in2="hardAlpha" operator="out"/>
<feColorMatrix type="matrix" values="0 0 0 0 0.0470588 0 0 0 0 0.0470588 0 0 0 0 0.0509804 0 0 0 0.05 0"/>
<feBlend mode="normal" in2="BackgroundImageFix" result="effect1_dropShadow_62_592"/>
<feColorMatrix in="SourceAlpha" type="matrix" values="0 0 0 0 0 0 0 0 0 0 0 0 0 0 0 0 0 0 127 0" result="hardAlpha"/>
<feMorphology radius="1" operator="erode" in="SourceAlpha" result="effect2_dropShadow_62_592"/>
<feOffset dy="4"/>
<feGaussianBlur stdDeviation="2"/>
<feComposite in2="hardAlpha" operator="out"/>
<feColorMatrix type="matrix" values="0 0 0 0 0.0470588 0 0 0 0 0.0470588 0 0 0 0 0.0509804 0 0 0 0.1 0"/>
<feBlend mode="normal" in2="effect1_dropShadow_62_592" result="effect2_dropShadow_62_592"/>
<feBlend mode="normal" in="SourceGraphic" in2="effect2_dropShadow_62_592" result="shape"/>
</filter>
</defs>
</svg>
