<svg width="256" height="257" viewBox="0 0 256 257" fill="none" xmlns="http://www.w3.org/2000/svg">
<g filter="url(#filter0_d_248_3239)">
<mask id="mask0_248_3239" style="mask-type:alpha" maskUnits="userSpaceOnUse" x="0" y="0" width="256" height="257">
<rect y="0.981735" width="256" height="256" fill="#D9D9D9"/>
</mask>
<g mask="url(#mask0_248_3239)">
<path d="M172.773 83.2632C166.513 77.0037 159.442 72.3079 151.559 69.1758C143.676 66.0437 135.662 64.4769 127.516 64.4753C119.37 64.4737 111.356 66.037 103.473 69.1651C95.5919 72.294 88.5218 76.9878 82.2632 83.2465C76.0037 89.506 71.3079 96.5772 68.1758 104.46C65.0437 112.343 63.4769 120.358 63.4753 128.504C63.4737 136.65 65.037 144.664 68.1651 152.546C71.294 160.427 75.9878 167.498 82.2465 173.756C88.506 180.016 95.5772 184.711 103.46 187.844C111.343 190.976 119.358 192.542 127.504 192.544C135.65 192.546 143.664 190.982 151.546 187.854C159.427 184.725 166.498 180.032 172.756 173.773C179.016 167.513 183.711 160.442 186.844 152.559C189.976 144.676 191.542 136.662 191.544 128.516C191.546 120.37 189.982 112.356 186.854 104.473C183.725 96.5919 179.032 89.5218 172.773 83.2632ZM131.797 120.888L149.212 103.473C150.268 102.416 151.401 102.276 152.611 103.051C153.82 103.827 154.186 104.905 153.71 106.285L138.566 145.118C138.139 146.157 137.368 146.812 136.255 147.084C135.141 147.357 134.198 147.107 133.427 146.337L123.937 136.846L106.147 154.636C105.09 155.693 103.945 155.846 102.711 155.095C101.477 154.343 101.099 153.278 101.575 151.898L116.618 112.066C117.094 110.979 117.862 110.297 118.922 110.018C119.981 109.74 120.902 109.993 121.684 110.775L131.797 120.888Z" fill="#E3E8FF"/>
</g>
</g>
<defs>
<filter id="filter0_d_248_3239" x="63.4753" y="64.4753" width="132.069" height="132.069" filterUnits="userSpaceOnUse" color-interpolation-filters="sRGB">
<feFlood flood-opacity="0" result="BackgroundImageFix"/>
<feColorMatrix in="SourceAlpha" type="matrix" values="0 0 0 0 0 0 0 0 0 0 0 0 0 0 0 0 0 0 127 0" result="hardAlpha"/>
<feOffset dx="4" dy="4"/>
<feComposite in2="hardAlpha" operator="out"/>
<feColorMatrix type="matrix" values="0 0 0 0 0.443137 0 0 0 0 0.517647 0 0 0 0 0.886275 0 0 0 0.5 0"/>
<feBlend mode="normal" in2="BackgroundImageFix" result="effect1_dropShadow_248_3239"/>
<feBlend mode="normal" in="SourceGraphic" in2="effect1_dropShadow_248_3239" result="shape"/>
</filter>
</defs>
</svg>
