<svg width="256" height="257" viewBox="0 0 256 257" fill="none" xmlns="http://www.w3.org/2000/svg">
<g filter="url(#filter0_d_62_3021)">
<mask id="mask0_62_3021" style="mask-type:alpha" maskUnits="userSpaceOnUse" x="0" y="0" width="256" height="257">
<rect y="0.981735" width="256" height="256" fill="#D9D9D9"/>
</mask>
<g mask="url(#mask0_62_3021)">
<path d="M146.4 224.982L74.6667 150.315V128.982H112C121.422 128.982 129.556 125.915 136.4 119.782C143.244 113.649 147.378 106.049 148.8 96.982H64V75.6486H145.6C142.578 69.4264 138.089 64.3153 132.133 60.3153C126.178 56.3153 119.467 54.3153 112 54.3153H64V32.982H192V54.3153H157.333C159.822 57.3375 162.044 60.6264 164 64.182C165.956 67.7375 167.467 71.5598 168.533 75.6486H192V96.982H170.4C168.978 112.093 162.756 124.76 151.733 134.982C140.711 145.204 127.467 150.315 112 150.315H104.267L176 224.982H146.4Z" fill="#E4E8FF"/>
</g>
</g>
<defs>
<filter id="filter0_d_62_3021" x="64" y="32.982" width="132" height="196" filterUnits="userSpaceOnUse" color-interpolation-filters="sRGB">
<feFlood flood-opacity="0" result="BackgroundImageFix"/>
<feColorMatrix in="SourceAlpha" type="matrix" values="0 0 0 0 0 0 0 0 0 0 0 0 0 0 0 0 0 0 127 0" result="hardAlpha"/>
<feOffset dx="4" dy="4"/>
<feComposite in2="hardAlpha" operator="out"/>
<feColorMatrix type="matrix" values="0 0 0 0 0.443137 0 0 0 0 0.517647 0 0 0 0 0.886275 0 0 0 0.5 0"/>
<feBlend mode="normal" in2="BackgroundImageFix" result="effect1_dropShadow_62_3021"/>
<feBlend mode="normal" in="SourceGraphic" in2="effect1_dropShadow_62_3021" result="shape"/>
</filter>
</defs>
</svg>
